0
SECTION
2
HEADER
9
$ACADVER
1
AC1027
9
$DWGCODEPAGE
3
ANSI_1252
9
$INSUNITS
70
4
9
$MEASUREMENT
70
1
9
$LUNITS
70
2
9
$LUPREC
70
3
0
ENDSEC
0
SECTION
2
TABLES
0
TABLE
2
LTYPE
5
10D
100
AcDbSymbolTable
70
3
0
LTYPE
5
10E
100
AcDbSymbolTableRecord
100
AcDbLinetypeTableRecord
2
CONTINUOUS
70
0
3
Solid line
72
65
73
0
40
0
0
LTYPE
5
10F
100
AcDbSymbolTableRecord
100
AcDbLinetypeTableRecord
2
DASHED
70
0
3
Dashed line
72
65
73
2
40
18
49
12
74
0
49
-6
74
0
0
LTYPE
5
110
100
AcDbSymbolTableRecord
100
AcDbLinetypeTableRecord
2
CENTER
70
0
3
Center line
72
65
73
4
40
33
49
20
74
0
49
-5
74
0
49
3
74
0
49
-5
74
0
0
ENDTAB
0
TABLE
2
LAYER
5
111
100
AcDbSymbolTable
70
11
0
LAYER
5
112
100
AcDbSymbolTableRecord
100
AcDbLayerTableRecord
2
0
70
0
62
7
420
16777215
6
CONTINUOUS
370
25
0
LAYER
5
113
100
AcDbSymbolTableRecord
100
AcDbLayerTableRecord
2
A-WALL
70
0
62
7
420
14870251
6
CONTINUOUS
370
35
0
LAYER
5
114
100
AcDbSymbolTableRecord
100
AcDbLayerTableRecord
2
A-DOOR
70
0
62
7
420
13216379
6
CONTINUOUS
370
18
0
LAYER
5
115
100
AcDbSymbolTableRecord
100
AcDbLayerTableRecord
2
A-GLAZING
70
0
62
7
420
8502224
6
CONTINUOUS
370
18
0
LAYER
5
116
100
AcDbSymbolTableRecord
100
AcDbLayerTableRecord
2
A-FURNITURE
70
0
62
7
420
10333342
6
CONTINUOUS
370
18
0
LAYER
5
117
100
AcDbSymbolTableRecord
100
AcDbLayerTableRecord
2
A-FIXTURES
70
0
62
7
420
10925245
6
CONTINUOUS
370
18
0
LAYER
5
118
100
AcDbSymbolTableRecord
100
AcDbLayerTableRecord
2
A-ANNOTATION
70
0
62
7
420
13950435
6
CONTINUOUS
370
18
0
LAYER
5
119
100
AcDbSymbolTableRecord
100
AcDbLayerTableRecord
2
A-DIMENSION
70
0
62
7
420
8563647
6
CONTINUOUS
370
13
0
LAYER
5
11A
100
AcDbSymbolTableRecord
100
AcDbLayerTableRecord
2
A-LANDSCAPE
70
0
62
7
420
7444860
6
CONTINUOUS
370
13
0
LAYER
5
11B
100
AcDbSymbolTableRecord
100
AcDbLayerTableRecord
2
A-SITE
70
0
62
7
420
6451065
6
DASHED
370
13
0
LAYER
5
11C
100
AcDbSymbolTableRecord
100
AcDbLayerTableRecord
2
A-HATCH
70
0
62
7
420
11056063
6
CONTINUOUS
370
13
0
ENDTAB
0
TABLE
2
STYLE
5
11D
100
AcDbSymbolTable
70
1
0
STYLE
5
11E
100
AcDbSymbolTableRecord
100
AcDbTextStyleTableRecord
2
STANDARD
70
0
40
0
41
1
50
0
71
0
42
100
3
txt
4

0
ENDTAB
0
TABLE
2
DIMSTYLE
5
11F
100
AcDbSymbolTable
70
1
100
AcDbDimStyleTable
0
DIMSTYLE
105
120
100
AcDbSymbolTableRecord
100
AcDbDimStyleTableRecord
2
STANDARD
70
0
40
1
41
50
140
90
147
30
271
0
0
ENDTAB
0
TABLE
2
BLOCK_RECORD
5
121
100
AcDbSymbolTable
70
12
0
BLOCK_RECORD
5
10B
100
AcDbSymbolTableRecord
100
AcDbBlockTableRecord
2
*Model_Space
70
0
0
BLOCK_RECORD
5
10C
100
AcDbSymbolTableRecord
100
AcDbBlockTableRecord
2
*Paper_Space
70
0
0
BLOCK_RECORD
5
101
100
AcDbSymbolTableRecord
100
AcDbBlockTableRecord
2
*D1
70
0
0
BLOCK_RECORD
5
102
100
AcDbSymbolTableRecord
100
AcDbBlockTableRecord
2
*D2
70
0
0
BLOCK_RECORD
5
103
100
AcDbSymbolTableRecord
100
AcDbBlockTableRecord
2
*D3
70
0
0
BLOCK_RECORD
5
104
100
AcDbSymbolTableRecord
100
AcDbBlockTableRecord
2
*D4
70
0
0
BLOCK_RECORD
5
105
100
AcDbSymbolTableRecord
100
AcDbBlockTableRecord
2
*D5
70
0
0
BLOCK_RECORD
5
106
100
AcDbSymbolTableRecord
100
AcDbBlockTableRecord
2
*D6
70
0
0
BLOCK_RECORD
5
107
100
AcDbSymbolTableRecord
100
AcDbBlockTableRecord
2
*D7
70
0
0
BLOCK_RECORD
5
108
100
AcDbSymbolTableRecord
100
AcDbBlockTableRecord
2
*D8
70
0
0
BLOCK_RECORD
5
109
100
AcDbSymbolTableRecord
100
AcDbBlockTableRecord
2
*D9
70
0
0
BLOCK_RECORD
5
10A
100
AcDbSymbolTableRecord
100
AcDbBlockTableRecord
2
*D10
70
0
0
ENDTAB
0
ENDSEC
0
SECTION
2
BLOCKS
0
BLOCK
5
122
330
10B
100
AcDbEntity
8
0
100
AcDbBlockBegin
2
*Model_Space
70
0
10
0
20
0
30
0
3
*Model_Space
1

0
ENDBLK
5
123
330
10B
100
AcDbEntity
8
0
100
AcDbBlockEnd
0
BLOCK
5
124
330
10C
100
AcDbEntity
8
0
100
AcDbBlockBegin
2
*Paper_Space
70
0
10
0
20
0
30
0
3
*Paper_Space
1

0
ENDBLK
5
125
330
10C
100
AcDbEntity
8
0
100
AcDbBlockEnd
0
BLOCK
5
126
330
101
100
AcDbEntity
8
0
100
AcDbBlockBegin
2
*D1
70
1
10
0
20
0
30
0
3
*D1
1

0
LINE
5
127
330
101
100
AcDbEntity
8
A-DIMENSION
100
AcDbLine
10
0
20
9620
30
0
11
0
21
10950
31
0
0
LINE
5
128
330
101
100
AcDbEntity
8
A-DIMENSION
100
AcDbLine
10
14200
20
9620
30
0
11
14200
21
10950
31
0
0
LINE
5
129
330
101
100
AcDbEntity
8
A-DIMENSION
100
AcDbLine
10
0
20
10900
30
0
11
14200
21
10900
31
0
0
LINE
5
12A
330
101
100
AcDbEntity
8
A-DIMENSION
100
AcDbLine
10
-36
20
10864
30
0
11
36
21
10936
31
0
0
LINE
5
12B
330
101
100
AcDbEntity
8
A-DIMENSION
100
AcDbLine
10
14164
20
10864
30
0
11
14236
21
10936
31
0
0
TEXT
5
12C
330
101
100
AcDbEntity
8
A-DIMENSION
100
AcDbText
10
7100
20
10955
30
0
40
100
1
14,200
50
0
7
STANDARD
72
1
11
7100
21
10955
31
0
100
AcDbText
73
0
0
ENDBLK
5
12D
330
101
100
AcDbEntity
8
0
100
AcDbBlockEnd
0
BLOCK
5
12E
330
102
100
AcDbEntity
8
0
100
AcDbBlockBegin
2
*D2
70
1
10
0
20
0
30
0
3
*D2
1

0
LINE
5
12F
330
102
100
AcDbEntity
8
A-DIMENSION
100
AcDbLine
10
0
20
9620
30
0
11
0
21
10350
31
0
0
LINE
5
130
330
102
100
AcDbEntity
8
A-DIMENSION
100
AcDbLine
10
7500
20
9620
30
0
11
7500
21
10350
31
0
0
LINE
5
131
330
102
100
AcDbEntity
8
A-DIMENSION
100
AcDbLine
10
0
20
10300
30
0
11
7500
21
10300
31
0
0
LINE
5
132
330
102
100
AcDbEntity
8
A-DIMENSION
100
AcDbLine
10
-36
20
10264
30
0
11
36
21
10336
31
0
0
LINE
5
133
330
102
100
AcDbEntity
8
A-DIMENSION
100
AcDbLine
10
7464
20
10264
30
0
11
7536
21
10336
31
0
0
TEXT
5
134
330
102
100
AcDbEntity
8
A-DIMENSION
100
AcDbText
10
3750
20
10355
30
0
40
100
1
7,500
50
0
7
STANDARD
72
1
11
3750
21
10355
31
0
100
AcDbText
73
0
0
ENDBLK
5
135
330
102
100
AcDbEntity
8
0
100
AcDbBlockEnd
0
BLOCK
5
136
330
103
100
AcDbEntity
8
0
100
AcDbBlockBegin
2
*D3
70
1
10
0
20
0
30
0
3
*D3
1

0
LINE
5
137
330
103
100
AcDbEntity
8
A-DIMENSION
100
AcDbLine
10
7500
20
9620
30
0
11
7500
21
10350
31
0
0
LINE
5
138
330
103
100
AcDbEntity
8
A-DIMENSION
100
AcDbLine
10
10460
20
9620
30
0
11
10460
21
10350
31
0
0
LINE
5
139
330
103
100
AcDbEntity
8
A-DIMENSION
100
AcDbLine
10
7500
20
10300
30
0
11
10460
21
10300
31
0
0
LINE
5
13A
330
103
100
AcDbEntity
8
A-DIMENSION
100
AcDbLine
10
7464
20
10264
30
0
11
7536
21
10336
31
0
0
LINE
5
13B
330
103
100
AcDbEntity
8
A-DIMENSION
100
AcDbLine
10
10424
20
10264
30
0
11
10496
21
10336
31
0
0
TEXT
5
13C
330
103
100
AcDbEntity
8
A-DIMENSION
100
AcDbText
10
8980
20
10355
30
0
40
100
1
2,960
50
0
7
STANDARD
72
1
11
8980
21
10355
31
0
100
AcDbText
73
0
0
ENDBLK
5
13D
330
103
100
AcDbEntity
8
0
100
AcDbBlockEnd
0
BLOCK
5
13E
330
104
100
AcDbEntity
8
0
100
AcDbBlockBegin
2
*D4
70
1
10
0
20
0
30
0
3
*D4
1

0
LINE
5
13F
330
104
100
AcDbEntity
8
A-DIMENSION
100
AcDbLine
10
10460
20
9620
30
0
11
10460
21
10350
31
0
0
LINE
5
140
330
104
100
AcDbEntity
8
A-DIMENSION
100
AcDbLine
10
14200
20
9620
30
0
11
14200
21
10350
31
0
0
LINE
5
141
330
104
100
AcDbEntity
8
A-DIMENSION
100
AcDbLine
10
10460
20
10300
30
0
11
14200
21
10300
31
0
0
LINE
5
142
330
104
100
AcDbEntity
8
A-DIMENSION
100
AcDbLine
10
10424
20
10264
30
0
11
10496
21
10336
31
0
0
LINE
5
143
330
104
100
AcDbEntity
8
A-DIMENSION
100
AcDbLine
10
14164
20
10264
30
0
11
14236
21
10336
31
0
0
TEXT
5
144
330
104
100
AcDbEntity
8
A-DIMENSION
100
AcDbText
10
12330
20
10355
30
0
40
100
1
3,740
50
0
7
STANDARD
72
1
11
12330
21
10355
31
0
100
AcDbText
73
0
0
ENDBLK
5
145
330
104
100
AcDbEntity
8
0
100
AcDbBlockEnd
0
BLOCK
5
146
330
105
100
AcDbEntity
8
0
100
AcDbBlockBegin
2
*D5
70
1
10
0
20
0
30
0
3
*D5
1

0
LINE
5
147
330
105
100
AcDbEntity
8
A-DIMENSION
100
AcDbLine
10
-20
20
0
30
0
11
-2800
21
0
31
0
0
LINE
5
148
330
105
100
AcDbEntity
8
A-DIMENSION
100
AcDbLine
10
-20
20
9600
30
0
11
-2800
21
9600
31
0
0
LINE
5
149
330
105
100
AcDbEntity
8
A-DIMENSION
100
AcDbLine
10
-2750
20
0
30
0
11
-2750
21
9600
31
0
0
LINE
5
14A
330
105
100
AcDbEntity
8
A-DIMENSION
100
AcDbLine
10
-2714
20
-36
30
0
11
-2786
21
36
31
0
0
LINE
5
14B
330
105
100
AcDbEntity
8
A-DIMENSION
100
AcDbLine
10
-2714
20
9564
30
0
11
-2786
21
9636
31
0
0
TEXT
5
14C
330
105
100
AcDbEntity
8
A-DIMENSION
100
AcDbText
10
-2805
20
4800
30
0
40
100
1
9,600
50
90
7
STANDARD
72
1
11
-2805
21
4800
31
0
100
AcDbText
73
0
0
ENDBLK
5
14D
330
105
100
AcDbEntity
8
0
100
AcDbBlockEnd
0
BLOCK
5
14E
330
106
100
AcDbEntity
8
0
100
AcDbBlockBegin
2
*D6
70
1
10
0
20
0
30
0
3
*D6
1

0
LINE
5
14F
330
106
100
AcDbEntity
8
A-DIMENSION
100
AcDbLine
10
14220
20
0
30
0
11
14950
21
0
31
0
0
LINE
5
150
330
106
100
AcDbEntity
8
A-DIMENSION
100
AcDbLine
10
14220
20
5250
30
0
11
14950
21
5250
31
0
0
LINE
5
151
330
106
100
AcDbEntity
8
A-DIMENSION
100
AcDbLine
10
14900
20
0
30
0
11
14900
21
5250
31
0
0
LINE
5
152
330
106
100
AcDbEntity
8
A-DIMENSION
100
AcDbLine
10
14936
20
-36
30
0
11
14864
21
36
31
0
0
LINE
5
153
330
106
100
AcDbEntity
8
A-DIMENSION
100
AcDbLine
10
14936
20
5214
30
0
11
14864
21
5286
31
0
0
TEXT
5
154
330
106
100
AcDbEntity
8
A-DIMENSION
100
AcDbText
10
14845
20
2625
30
0
40
100
1
5,250
50
90
7
STANDARD
72
1
11
14845
21
2625
31
0
100
AcDbText
73
0
0
ENDBLK
5
155
330
106
100
AcDbEntity
8
0
100
AcDbBlockEnd
0
BLOCK
5
156
330
107
100
AcDbEntity
8
0
100
AcDbBlockBegin
2
*D7
70
1
10
0
20
0
30
0
3
*D7
1

0
LINE
5
157
330
107
100
AcDbEntity
8
A-DIMENSION
100
AcDbLine
10
14220
20
5250
30
0
11
14950
21
5250
31
0
0
LINE
5
158
330
107
100
AcDbEntity
8
A-DIMENSION
100
AcDbLine
10
14220
20
9600
30
0
11
14950
21
9600
31
0
0
LINE
5
159
330
107
100
AcDbEntity
8
A-DIMENSION
100
AcDbLine
10
14900
20
5250
30
0
11
14900
21
9600
31
0
0
LINE
5
15A
330
107
100
AcDbEntity
8
A-DIMENSION
100
AcDbLine
10
14936
20
5214
30
0
11
14864
21
5286
31
0
0
LINE
5
15B
330
107
100
AcDbEntity
8
A-DIMENSION
100
AcDbLine
10
14936
20
9564
30
0
11
14864
21
9636
31
0
0
TEXT
5
15C
330
107
100
AcDbEntity
8
A-DIMENSION
100
AcDbText
10
14845
20
7425
30
0
40
100
1
4,350
50
90
7
STANDARD
72
1
11
14845
21
7425
31
0
100
AcDbText
73
0
0
ENDBLK
5
15D
330
107
100
AcDbEntity
8
0
100
AcDbBlockEnd
0
BLOCK
5
15E
330
108
100
AcDbEntity
8
0
100
AcDbBlockBegin
2
*D8
70
1
10
0
20
0
30
0
3
*D8
1

0
LINE
5
15F
330
108
100
AcDbEntity
8
A-DIMENSION
100
AcDbLine
10
0
20
-20
30
0
11
0
21
-700
31
0
0
LINE
5
160
330
108
100
AcDbEntity
8
A-DIMENSION
100
AcDbLine
10
7500
20
-20
30
0
11
7500
21
-700
31
0
0
LINE
5
161
330
108
100
AcDbEntity
8
A-DIMENSION
100
AcDbLine
10
0
20
-650
30
0
11
7500
21
-650
31
0
0
LINE
5
162
330
108
100
AcDbEntity
8
A-DIMENSION
100
AcDbLine
10
-36
20
-686
30
0
11
36
21
-614
31
0
0
LINE
5
163
330
108
100
AcDbEntity
8
A-DIMENSION
100
AcDbLine
10
7464
20
-686
30
0
11
7536
21
-614
31
0
0
TEXT
5
164
330
108
100
AcDbEntity
8
A-DIMENSION
100
AcDbText
10
3750
20
-595
30
0
40
100
1
7,500
50
0
7
STANDARD
72
1
11
3750
21
-595
31
0
100
AcDbText
73
0
0
ENDBLK
5
165
330
108
100
AcDbEntity
8
0
100
AcDbBlockEnd
0
BLOCK
5
166
330
109
100
AcDbEntity
8
0
100
AcDbBlockBegin
2
*D9
70
1
10
0
20
0
30
0
3
*D9
1

0
LINE
5
167
330
109
100
AcDbEntity
8
A-DIMENSION
100
AcDbLine
10
7500
20
-20
30
0
11
7500
21
-700
31
0
0
LINE
5
168
330
109
100
AcDbEntity
8
A-DIMENSION
100
AcDbLine
10
10460
20
-20
30
0
11
10460
21
-700
31
0
0
LINE
5
169
330
109
100
AcDbEntity
8
A-DIMENSION
100
AcDbLine
10
7500
20
-650
30
0
11
10460
21
-650
31
0
0
LINE
5
16A
330
109
100
AcDbEntity
8
A-DIMENSION
100
AcDbLine
10
7464
20
-686
30
0
11
7536
21
-614
31
0
0
LINE
5
16B
330
109
100
AcDbEntity
8
A-DIMENSION
100
AcDbLine
10
10424
20
-686
30
0
11
10496
21
-614
31
0
0
TEXT
5
16C
330
109
100
AcDbEntity
8
A-DIMENSION
100
AcDbText
10
8980
20
-595
30
0
40
100
1
2,960
50
0
7
STANDARD
72
1
11
8980
21
-595
31
0
100
AcDbText
73
0
0
ENDBLK
5
16D
330
109
100
AcDbEntity
8
0
100
AcDbBlockEnd
0
BLOCK
5
16E
330
10A
100
AcDbEntity
8
0
100
AcDbBlockBegin
2
*D10
70
1
10
0
20
0
30
0
3
*D10
1

0
LINE
5
16F
330
10A
100
AcDbEntity
8
A-DIMENSION
100
AcDbLine
10
10460
20
-20
30
0
11
10460
21
-700
31
0
0
LINE
5
170
330
10A
100
AcDbEntity
8
A-DIMENSION
100
AcDbLine
10
14200
20
-20
30
0
11
14200
21
-700
31
0
0
LINE
5
171
330
10A
100
AcDbEntity
8
A-DIMENSION
100
AcDbLine
10
10460
20
-650
30
0
11
14200
21
-650
31
0
0
LINE
5
172
330
10A
100
AcDbEntity
8
A-DIMENSION
100
AcDbLine
10
10424
20
-686
30
0
11
10496
21
-614
31
0
0
LINE
5
173
330
10A
100
AcDbEntity
8
A-DIMENSION
100
AcDbLine
10
14164
20
-686
30
0
11
14236
21
-614
31
0
0
TEXT
5
174
330
10A
100
AcDbEntity
8
A-DIMENSION
100
AcDbText
10
12330
20
-595
30
0
40
100
1
3,740
50
0
7
STANDARD
72
1
11
12330
21
-595
31
0
100
AcDbText
73
0
0
ENDBLK
5
175
330
10A
100
AcDbEntity
8
0
100
AcDbBlockEnd
0
ENDSEC
0
SECTION
2
ENTITIES
0
LWPOLYLINE
5
176
330
10B
100
AcDbEntity
8
A-WALL
100
AcDbPolyline
90
4
70
1
10
0
20
0
10
14200
20
0
10
14200
20
200
10
0
20
200
0
HATCH
5
177
330
10B
100
AcDbEntity
8
A-HATCH
100
AcDbHatch
10
0
20
0
30
0
210
0
220
0
230
1
2
ANSI31
70
0
71
0
91
1
92
2
72
0
73
1
93
4
10
0
20
0
10
14200
20
0
10
14200
20
200
10
0
20
200
97
0
75
0
76
1
52
0
41
1
77
0
78
1
53
45
43
0
44
0
45
-70.710678
46
70.710678
79
0
98
0
0
LWPOLYLINE
5
178
330
10B
100
AcDbEntity
8
A-WALL
100
AcDbPolyline
90
4
70
1
10
0
20
200
10
200
20
200
10
200
20
9400
10
0
20
9400
0
HATCH
5
179
330
10B
100
AcDbEntity
8
A-HATCH
100
AcDbHatch
10
0
20
0
30
0
210
0
220
0
230
1
2
ANSI31
70
0
71
0
91
1
92
2
72
0
73
1
93
4
10
0
20
200
10
200
20
200
10
200
20
9400
10
0
20
9400
97
0
75
0
76
1
52
0
41
1
77
0
78
1
53
45
43
0
44
0
45
-70.710678
46
70.710678
79
0
98
0
0
LWPOLYLINE
5
17A
330
10B
100
AcDbEntity
8
A-WALL
100
AcDbPolyline
90
4
70
1
10
14000
20
200
10
14200
20
200
10
14200
20
9400
10
14000
20
9400
0
HATCH
5
17B
330
10B
100
AcDbEntity
8
A-HATCH
100
AcDbHatch
10
0
20
0
30
0
210
0
220
0
230
1
2
ANSI31
70
0
71
0
91
1
92
2
72
0
73
1
93
4
10
14000
20
200
10
14200
20
200
10
14200
20
9400
10
14000
20
9400
97
0
75
0
76
1
52
0
41
1
77
0
78
1
53
45
43
0
44
0
45
-70.710678
46
70.710678
79
0
98
0
0
LWPOLYLINE
5
17C
330
10B
100
AcDbEntity
8
A-WALL
100
AcDbPolyline
90
4
70
1
10
0
20
9400
10
14200
20
9400
10
14200
20
9600
10
0
20
9600
0
HATCH
5
17D
330
10B
100
AcDbEntity
8
A-HATCH
100
AcDbHatch
10
0
20
0
30
0
210
0
220
0
230
1
2
ANSI31
70
0
71
0
91
1
92
2
72
0
73
1
93
4
10
0
20
9400
10
14200
20
9400
10
14200
20
9600
10
0
20
9600
97
0
75
0
76
1
52
0
41
1
77
0
78
1
53
45
43
0
44
0
45
-70.710678
46
70.710678
79
0
98
0
0
LWPOLYLINE
5
17E
330
10B
100
AcDbEntity
8
A-WALL
100
AcDbPolyline
90
4
70
1
10
7500
20
200
10
7660
20
200
10
7660
20
1350
10
7500
20
1350
0
HATCH
5
17F
330
10B
100
AcDbEntity
8
A-HATCH
100
AcDbHatch
10
0
20
0
30
0
210
0
220
0
230
1
2
ANSI31
70
0
71
0
91
1
92
2
72
0
73
1
93
4
10
7500
20
200
10
7660
20
200
10
7660
20
1350
10
7500
20
1350
97
0
75
0
76
1
52
0
41
1
77
0
78
1
53
45
43
0
44
0
45
-70.710678
46
70.710678
79
0
98
0
0
LWPOLYLINE
5
180
330
10B
100
AcDbEntity
8
A-WALL
100
AcDbPolyline
90
4
70
1
10
7500
20
2250
10
7660
20
2250
10
7660
20
4650
10
7500
20
4650
0
HATCH
5
181
330
10B
100
AcDbEntity
8
A-HATCH
100
AcDbHatch
10
0
20
0
30
0
210
0
220
0
230
1
2
ANSI31
70
0
71
0
91
1
92
2
72
0
73
1
93
4
10
7500
20
2250
10
7660
20
2250
10
7660
20
4650
10
7500
20
4650
97
0
75
0
76
1
52
0
41
1
77
0
78
1
53
45
43
0
44
0
45
-70.710678
46
70.710678
79
0
98
0
0
LWPOLYLINE
5
182
330
10B
100
AcDbEntity
8
A-WALL
100
AcDbPolyline
90
4
70
1
10
7500
20
5550
10
7660
20
5550
10
7660
20
9400
10
7500
20
9400
0
HATCH
5
183
330
10B
100
AcDbEntity
8
A-HATCH
100
AcDbHatch
10
0
20
0
30
0
210
0
220
0
230
1
2
ANSI31
70
0
71
0
91
1
92
2
72
0
73
1
93
4
10
7500
20
5550
10
7660
20
5550
10
7660
20
9400
10
7500
20
9400
97
0
75
0
76
1
52
0
41
1
77
0
78
1
53
45
43
0
44
0
45
-70.710678
46
70.710678
79
0
98
0
0
LWPOLYLINE
5
184
330
10B
100
AcDbEntity
8
A-WALL
100
AcDbPolyline
90
4
70
1
10
200
20
5250
10
2400
20
5250
10
2400
20
5410
10
200
20
5410
0
HATCH
5
185
330
10B
100
AcDbEntity
8
A-HATCH
100
AcDbHatch
10
0
20
0
30
0
210
0
220
0
230
1
2
ANSI31
70
0
71
0
91
1
92
2
72
0
73
1
93
4
10
200
20
5250
10
2400
20
5250
10
2400
20
5410
10
200
20
5410
97
0
75
0
76
1
52
0
41
1
77
0
78
1
53
45
43
0
44
0
45
-70.710678
46
70.710678
79
0
98
0
0
LWPOLYLINE
5
186
330
10B
100
AcDbEntity
8
A-WALL
100
AcDbPolyline
90
4
70
1
10
3300
20
5250
10
7500
20
5250
10
7500
20
5410
10
3300
20
5410
0
HATCH
5
187
330
10B
100
AcDbEntity
8
A-HATCH
100
AcDbHatch
10
0
20
0
30
0
210
0
220
0
230
1
2
ANSI31
70
0
71
0
91
1
92
2
72
0
73
1
93
4
10
3300
20
5250
10
7500
20
5250
10
7500
20
5410
10
3300
20
5410
97
0
75
0
76
1
52
0
41
1
77
0
78
1
53
45
43
0
44
0
45
-70.710678
46
70.710678
79
0
98
0
0
LWPOLYLINE
5
188
330
10B
100
AcDbEntity
8
A-WALL
100
AcDbPolyline
90
4
70
1
10
7660
20
5250
10
9260
20
5250
10
9260
20
5410
10
7660
20
5410
0
HATCH
5
189
330
10B
100
AcDbEntity
8
A-HATCH
100
AcDbHatch
10
0
20
0
30
0
210
0
220
0
230
1
2
ANSI31
70
0
71
0
91
1
92
2
72
0
73
1
93
4
10
7660
20
5250
10
9260
20
5250
10
9260
20
5410
10
7660
20
5410
97
0
75
0
76
1
52
0
41
1
77
0
78
1
53
45
43
0
44
0
45
-70.710678
46
70.710678
79
0
98
0
0
LWPOLYLINE
5
18A
330
10B
100
AcDbEntity
8
A-WALL
100
AcDbPolyline
90
4
70
1
10
10160
20
5250
10
14000
20
5250
10
14000
20
5410
10
10160
20
5410
0
HATCH
5
18B
330
10B
100
AcDbEntity
8
A-HATCH
100
AcDbHatch
10
0
20
0
30
0
210
0
220
0
230
1
2
ANSI31
70
0
71
0
91
1
92
2
72
0
73
1
93
4
10
10160
20
5250
10
14000
20
5250
10
14000
20
5410
10
10160
20
5410
97
0
75
0
76
1
52
0
41
1
77
0
78
1
53
45
43
0
44
0
45
-70.710678
46
70.710678
79
0
98
0
0
LWPOLYLINE
5
18C
330
10B
100
AcDbEntity
8
A-WALL
100
AcDbPolyline
90
4
70
1
10
10300
20
5410
10
10460
20
5410
10
10460
20
9400
10
10300
20
9400
0
HATCH
5
18D
330
10B
100
AcDbEntity
8
A-HATCH
100
AcDbHatch
10
0
20
0
30
0
210
0
220
0
230
1
2
ANSI31
70
0
71
0
91
1
92
2
72
0
73
1
93
4
10
10300
20
5410
10
10460
20
5410
10
10460
20
9400
10
10300
20
9400
97
0
75
0
76
1
52
0
41
1
77
0
78
1
53
45
43
0
44
0
45
-70.710678
46
70.710678
79
0
98
0
0
LWPOLYLINE
5
18E
330
10B
100
AcDbEntity
8
A-WALL
100
AcDbPolyline
90
4
70
1
10
10300
20
200
10
10460
20
200
10
10460
20
2300
10
10300
20
2300
0
HATCH
5
18F
330
10B
100
AcDbEntity
8
A-HATCH
100
AcDbHatch
10
0
20
0
30
0
210
0
220
0
230
1
2
ANSI31
70
0
71
0
91
1
92
2
72
0
73
1
93
4
10
10300
20
200
10
10460
20
200
10
10460
20
2300
10
10300
20
2300
97
0
75
0
76
1
52
0
41
1
77
0
78
1
53
45
43
0
44
0
45
-70.710678
46
70.710678
79
0
98
0
0
LWPOLYLINE
5
190
330
10B
100
AcDbEntity
8
A-WALL
100
AcDbPolyline
90
4
70
1
10
10300
20
3200
10
10460
20
3200
10
10460
20
5250
10
10300
20
5250
0
HATCH
5
191
330
10B
100
AcDbEntity
8
A-HATCH
100
AcDbHatch
10
0
20
0
30
0
210
0
220
0
230
1
2
ANSI31
70
0
71
0
91
1
92
2
72
0
73
1
93
4
10
10300
20
3200
10
10460
20
3200
10
10460
20
5250
10
10300
20
5250
97
0
75
0
76
1
52
0
41
1
77
0
78
1
53
45
43
0
44
0
45
-70.710678
46
70.710678
79
0
98
0
0
LWPOLYLINE
5
192
330
10B
100
AcDbEntity
8
A-WALL
100
AcDbPolyline
90
4
70
1
10
10460
20
3300
10
11760
20
3300
10
11760
20
3460
10
10460
20
3460
0
HATCH
5
193
330
10B
100
AcDbEntity
8
A-HATCH
100
AcDbHatch
10
0
20
0
30
0
210
0
220
0
230
1
2
ANSI31
70
0
71
0
91
1
92
2
72
0
73
1
93
4
10
10460
20
3300
10
11760
20
3300
10
11760
20
3460
10
10460
20
3460
97
0
75
0
76
1
52
0
41
1
77
0
78
1
53
45
43
0
44
0
45
-70.710678
46
70.710678
79
0
98
0
0
LWPOLYLINE
5
194
330
10B
100
AcDbEntity
8
A-WALL
100
AcDbPolyline
90
4
70
1
10
12660
20
3300
10
14000
20
3300
10
14000
20
3460
10
12660
20
3460
0
HATCH
5
195
330
10B
100
AcDbEntity
8
A-HATCH
100
AcDbHatch
10
0
20
0
30
0
210
0
220
0
230
1
2
ANSI31
70
0
71
0
91
1
92
2
72
0
73
1
93
4
10
12660
20
3300
10
14000
20
3300
10
14000
20
3460
10
12660
20
3460
97
0
75
0
76
1
52
0
41
1
77
0
78
1
53
45
43
0
44
0
45
-70.710678
46
70.710678
79
0
98
0
0
LWPOLYLINE
5
196
330
10B
100
AcDbEntity
8
A-GLAZING
100
AcDbPolyline
90
4
70
1
10
1100
20
0
10
4500
20
0
10
4500
20
200
10
1100
20
200
0
LINE
5
197
330
10B
100
AcDbEntity
8
A-GLAZING
100
AcDbLine
10
1100
20
70
30
0
11
4500
21
70
31
0
0
LINE
5
198
330
10B
100
AcDbEntity
8
A-GLAZING
100
AcDbLine
10
1100
20
130
30
0
11
4500
21
130
31
0
0
LINE
5
199
330
10B
100
AcDbEntity
8
A-GLAZING
100
AcDbLine
10
2800
20
0
30
0
11
2800
21
200
31
0
0
LWPOLYLINE
5
19A
330
10B
100
AcDbEntity
8
A-GLAZING
100
AcDbPolyline
90
4
70
1
10
5000
20
0
10
6400
20
0
10
6400
20
200
10
5000
20
200
0
LINE
5
19B
330
10B
100
AcDbEntity
8
A-GLAZING
100
AcDbLine
10
5000
20
70
30
0
11
6400
21
70
31
0
0
LINE
5
19C
330
10B
100
AcDbEntity
8
A-GLAZING
100
AcDbLine
10
5000
20
130
30
0
11
6400
21
130
31
0
0
LINE
5
19D
330
10B
100
AcDbEntity
8
A-GLAZING
100
AcDbLine
10
5700
20
0
30
0
11
5700
21
200
31
0
0
LWPOLYLINE
5
19E
330
10B
100
AcDbEntity
8
A-GLAZING
100
AcDbPolyline
90
4
70
1
10
8400
20
0
10
9600
20
0
10
9600
20
200
10
8400
20
200
0
LINE
5
19F
330
10B
100
AcDbEntity
8
A-GLAZING
100
AcDbLine
10
8400
20
70
30
0
11
9600
21
70
31
0
0
LINE
5
1A0
330
10B
100
AcDbEntity
8
A-GLAZING
100
AcDbLine
10
8400
20
130
30
0
11
9600
21
130
31
0
0
LINE
5
1A1
330
10B
100
AcDbEntity
8
A-GLAZING
100
AcDbLine
10
9000
20
0
30
0
11
9000
21
200
31
0
0
LWPOLYLINE
5
1A2
330
10B
100
AcDbEntity
8
A-GLAZING
100
AcDbPolyline
90
4
70
1
10
11100
20
0
10
12900
20
0
10
12900
20
200
10
11100
20
200
0
LINE
5
1A3
330
10B
100
AcDbEntity
8
A-GLAZING
100
AcDbLine
10
11100
20
70
30
0
11
12900
21
70
31
0
0
LINE
5
1A4
330
10B
100
AcDbEntity
8
A-GLAZING
100
AcDbLine
10
11100
20
130
30
0
11
12900
21
130
31
0
0
LINE
5
1A5
330
10B
100
AcDbEntity
8
A-GLAZING
100
AcDbLine
10
12000
20
0
30
0
11
12000
21
200
31
0
0
LWPOLYLINE
5
1A6
330
10B
100
AcDbEntity
8
A-GLAZING
100
AcDbPolyline
90
4
70
1
10
1100
20
9400
10
3900
20
9400
10
3900
20
9600
10
1100
20
9600
0
LINE
5
1A7
330
10B
100
AcDbEntity
8
A-GLAZING
100
AcDbLine
10
1100
20
9470
30
0
11
3900
21
9470
31
0
0
LINE
5
1A8
330
10B
100
AcDbEntity
8
A-GLAZING
100
AcDbLine
10
1100
20
9530
30
0
11
3900
21
9530
31
0
0
LINE
5
1A9
330
10B
100
AcDbEntity
8
A-GLAZING
100
AcDbLine
10
2500
20
9400
30
0
11
2500
21
9600
31
0
0
LWPOLYLINE
5
1AA
330
10B
100
AcDbEntity
8
A-GLAZING
100
AcDbPolyline
90
4
70
1
10
4500
20
9400
10
6600
20
9400
10
6600
20
9600
10
4500
20
9600
0
LINE
5
1AB
330
10B
100
AcDbEntity
8
A-GLAZING
100
AcDbLine
10
4500
20
9470
30
0
11
6600
21
9470
31
0
0
LINE
5
1AC
330
10B
100
AcDbEntity
8
A-GLAZING
100
AcDbLine
10
4500
20
9530
30
0
11
6600
21
9530
31
0
0
LINE
5
1AD
330
10B
100
AcDbEntity
8
A-GLAZING
100
AcDbLine
10
5550
20
9400
30
0
11
5550
21
9600
31
0
0
LWPOLYLINE
5
1AE
330
10B
100
AcDbEntity
8
A-GLAZING
100
AcDbPolyline
90
4
70
1
10
8100
20
9400
10
9700
20
9400
10
9700
20
9600
10
8100
20
9600
0
LINE
5
1AF
330
10B
100
AcDbEntity
8
A-GLAZING
100
AcDbLine
10
8100
20
9470
30
0
11
9700
21
9470
31
0
0
LINE
5
1B0
330
10B
100
AcDbEntity
8
A-GLAZING
100
AcDbLine
10
8100
20
9530
30
0
11
9700
21
9530
31
0
0
LINE
5
1B1
330
10B
100
AcDbEntity
8
A-GLAZING
100
AcDbLine
10
8900
20
9400
30
0
11
8900
21
9600
31
0
0
LWPOLYLINE
5
1B2
330
10B
100
AcDbEntity
8
A-GLAZING
100
AcDbPolyline
90
4
70
1
10
11100
20
9400
10
13200
20
9400
10
13200
20
9600
10
11100
20
9600
0
LINE
5
1B3
330
10B
100
AcDbEntity
8
A-GLAZING
100
AcDbLine
10
11100
20
9470
30
0
11
13200
21
9470
31
0
0
LINE
5
1B4
330
10B
100
AcDbEntity
8
A-GLAZING
100
AcDbLine
10
11100
20
9530
30
0
11
13200
21
9530
31
0
0
LINE
5
1B5
330
10B
100
AcDbEntity
8
A-GLAZING
100
AcDbLine
10
12150
20
9400
30
0
11
12150
21
9600
31
0
0
LWPOLYLINE
5
1B6
330
10B
100
AcDbEntity
8
A-GLAZING
100
AcDbPolyline
90
4
70
1
10
200
20
1300
10
200
20
3100
10
0
20
3100
10
0
20
1300
0
LINE
5
1B7
330
10B
100
AcDbEntity
8
A-GLAZING
100
AcDbLine
10
130
20
1300
30
0
11
130
21
3100
31
0
0
LINE
5
1B8
330
10B
100
AcDbEntity
8
A-GLAZING
100
AcDbLine
10
70
20
1300
30
0
11
70
21
3100
31
0
0
LINE
5
1B9
330
10B
100
AcDbEntity
8
A-GLAZING
100
AcDbLine
10
200
20
2200
30
0
11
0
21
2200
31
0
0
LWPOLYLINE
5
1BA
330
10B
100
AcDbEntity
8
A-GLAZING
100
AcDbPolyline
90
4
70
1
10
200
20
6600
10
200
20
8400
10
0
20
8400
10
0
20
6600
0
LINE
5
1BB
330
10B
100
AcDbEntity
8
A-GLAZING
100
AcDbLine
10
130
20
6600
30
0
11
130
21
8400
31
0
0
LINE
5
1BC
330
10B
100
AcDbEntity
8
A-GLAZING
100
AcDbLine
10
70
20
6600
30
0
11
70
21
8400
31
0
0
LINE
5
1BD
330
10B
100
AcDbEntity
8
A-GLAZING
100
AcDbLine
10
200
20
7500
30
0
11
0
21
7500
31
0
0
LWPOLYLINE
5
1BE
330
10B
100
AcDbEntity
8
A-GLAZING
100
AcDbPolyline
90
4
70
1
10
14200
20
6200
10
14200
20
8000
10
14000
20
8000
10
14000
20
6200
0
LINE
5
1BF
330
10B
100
AcDbEntity
8
A-GLAZING
100
AcDbLine
10
14130
20
6200
30
0
11
14130
21
8000
31
0
0
LINE
5
1C0
330
10B
100
AcDbEntity
8
A-GLAZING
100
AcDbLine
10
14070
20
6200
30
0
11
14070
21
8000
31
0
0
LINE
5
1C1
330
10B
100
AcDbEntity
8
A-GLAZING
100
AcDbLine
10
14200
20
7100
30
0
11
14000
21
7100
31
0
0
LINE
5
1C2
330
10B
100
AcDbEntity
8
A-DOOR
100
AcDbLine
10
7500
20
1350
30
0
11
6600
21
1350
31
0
0
LINE
5
1C3
330
10B
100
AcDbEntity
8
A-DOOR
100
AcDbLine
10
7500
20
1350
30
0
11
7500
21
2250
31
0
0
ARC
5
1C4
330
10B
100
AcDbEntity
8
A-DOOR
100
AcDbCircle
10
7500
20
1350
30
0
40
900
100
AcDbArc
50
90
51
180
0
LINE
5
1C5
330
10B
100
AcDbEntity
8
A-DOOR
100
AcDbLine
10
7500
20
4650
30
0
11
6600
21
4650
31
0
0
LINE
5
1C6
330
10B
100
AcDbEntity
8
A-DOOR
100
AcDbLine
10
7500
20
4650
30
0
11
7500
21
5550
31
0
0
ARC
5
1C7
330
10B
100
AcDbEntity
8
A-DOOR
100
AcDbCircle
10
7500
20
4650
30
0
40
900
100
AcDbArc
50
90
51
180
0
LINE
5
1C8
330
10B
100
AcDbEntity
8
A-DOOR
100
AcDbLine
10
2400
20
5410
30
0
11
2400
21
6310
31
0
0
LINE
5
1C9
330
10B
100
AcDbEntity
8
A-DOOR
100
AcDbLine
10
2400
20
5410
30
0
11
3300
21
5410
31
0
0
ARC
5
1CA
330
10B
100
AcDbEntity
8
A-DOOR
100
AcDbCircle
10
2400
20
5410
30
0
40
900
100
AcDbArc
50
0
51
90
0
LINE
5
1CB
330
10B
100
AcDbEntity
8
A-DOOR
100
AcDbLine
10
9260
20
5410
30
0
11
9260
21
6310
31
0
0
LINE
5
1CC
330
10B
100
AcDbEntity
8
A-DOOR
100
AcDbLine
10
9260
20
5410
30
0
11
10160
21
5410
31
0
0
ARC
5
1CD
330
10B
100
AcDbEntity
8
A-DOOR
100
AcDbCircle
10
9260
20
5410
30
0
40
900
100
AcDbArc
50
0
51
90
0
LINE
5
1CE
330
10B
100
AcDbEntity
8
A-DOOR
100
AcDbLine
10
10460
20
2300
30
0
11
10460
21
3200
31
0
0
LINE
5
1CF
330
10B
100
AcDbEntity
8
A-DOOR
100
AcDbLine
10
10460
20
2300
30
0
11
11360
21
2300
31
0
0
ARC
5
1D0
330
10B
100
AcDbEntity
8
A-DOOR
100
AcDbCircle
10
10460
20
2300
30
0
40
900
100
AcDbArc
50
0
51
90
0
LINE
5
1D1
330
10B
100
AcDbEntity
8
A-DOOR
100
AcDbLine
10
11760
20
3460
30
0
11
11760
21
4360
31
0
0
LINE
5
1D2
330
10B
100
AcDbEntity
8
A-DOOR
100
AcDbLine
10
11760
20
3460
30
0
11
12660
21
3460
31
0
0
ARC
5
1D3
330
10B
100
AcDbEntity
8
A-DOOR
100
AcDbCircle
10
11760
20
3460
30
0
40
900
100
AcDbArc
50
0
51
90
0
LWPOLYLINE
5
1D4
330
10B
100
AcDbEntity
8
A-FIXTURES
100
AcDbPolyline
90
4
70
1
10
350
20
5550
10
980
20
5550
10
980
20
8850
10
350
20
8850
0
LWPOLYLINE
5
1D5
330
10B
100
AcDbEntity
8
A-FIXTURES
100
AcDbPolyline
90
4
70
1
10
350
20
8750
10
5150
20
8750
10
5150
20
9250
10
350
20
9250
0
LINE
5
1D6
330
10B
100
AcDbEntity
8
A-FIXTURES
100
AcDbLine
10
950
20
8750
30
0
11
950
21
9250
31
0
0
LINE
5
1D7
330
10B
100
AcDbEntity
8
A-FIXTURES
100
AcDbLine
10
1550
20
8750
30
0
11
1550
21
9250
31
0
0
LINE
5
1D8
330
10B
100
AcDbEntity
8
A-FIXTURES
100
AcDbLine
10
2150
20
8750
30
0
11
2150
21
9250
31
0
0
LINE
5
1D9
330
10B
100
AcDbEntity
8
A-FIXTURES
100
AcDbLine
10
2750
20
8750
30
0
11
2750
21
9250
31
0
0
LINE
5
1DA
330
10B
100
AcDbEntity
8
A-FIXTURES
100
AcDbLine
10
3350
20
8750
30
0
11
3350
21
9250
31
0
0
LINE
5
1DB
330
10B
100
AcDbEntity
8
A-FIXTURES
100
AcDbLine
10
3950
20
8750
30
0
11
3950
21
9250
31
0
0
LINE
5
1DC
330
10B
100
AcDbEntity
8
A-FIXTURES
100
AcDbLine
10
4550
20
8750
30
0
11
4550
21
9250
31
0
0
LWPOLYLINE
5
1DD
330
10B
100
AcDbEntity
8
A-FIXTURES
100
AcDbPolyline
90
4
70
1
10
1550
20
8810
10
2500
20
8810
10
2500
20
9190
10
1550
20
9190
0
LWPOLYLINE
5
1DE
330
10B
100
AcDbEntity
8
A-FIXTURES
100
AcDbPolyline
90
4
70
1
10
1620
20
8870
10
1990
20
8870
10
1990
20
9120
10
1620
20
9120
0
LWPOLYLINE
5
1DF
330
10B
100
AcDbEntity
8
A-FIXTURES
100
AcDbPolyline
90
4
70
1
10
2060
20
8870
10
2430
20
8870
10
2430
20
9120
10
2060
20
9120
0
ARC
5
1E0
330
10B
100
AcDbEntity
8
A-FIXTURES
100
AcDbCircle
10
2025
20
9100
30
0
40
95
100
AcDbArc
50
0
51
180
0
LWPOLYLINE
5
1E1
330
10B
100
AcDbEntity
8
A-FIXTURES
100
AcDbPolyline
90
4
70
1
10
3880
20
8800
10
4620
20
8800
10
4620
20
9200
10
3880
20
9200
0
CIRCLE
5
1E2
330
10B
100
AcDbEntity
8
A-FIXTURES
100
AcDbCircle
10
4060
20
8890
30
0
40
72
0
CIRCLE
5
1E3
330
10B
100
AcDbEntity
8
A-FIXTURES
100
AcDbCircle
10
4060
20
9100
30
0
40
72
0
CIRCLE
5
1E4
330
10B
100
AcDbEntity
8
A-FIXTURES
100
AcDbCircle
10
4440
20
8890
30
0
40
72
0
CIRCLE
5
1E5
330
10B
100
AcDbEntity
8
A-FIXTURES
100
AcDbCircle
10
4440
20
9100
30
0
40
72
0
LWPOLYLINE
5
1E6
330
10B
100
AcDbEntity
8
A-FIXTURES
100
AcDbPolyline
90
4
70
1
10
350
20
5590
10
950
20
5590
10
950
20
6630
10
350
20
6630
0
LINE
5
1E7
330
10B
100
AcDbEntity
8
A-FIXTURES
100
AcDbLine
10
650
20
5590
30
0
11
650
21
6630
31
0
0
LWPOLYLINE
5
1E8
330
10B
100
AcDbEntity
8
A-FIXTURES
100
AcDbPolyline
90
4
70
1
10
2100
20
6650
10
4700
20
6650
10
4700
20
7470
10
2100
20
7470
0
LWPOLYLINE
5
1E9
330
10B
100
AcDbEntity
8
A-FIXTURES
100
AcDbPolyline
90
4
70
1
10
2160
20
6710
10
4640
20
6710
10
4640
20
7410
10
2160
20
7410
0
CIRCLE
5
1EA
330
10B
100
AcDbEntity
8
A-FURNITURE
100
AcDbCircle
10
2500
20
6320
30
0
40
220
0
ARC
5
1EB
330
10B
100
AcDbEntity
8
A-FURNITURE
100
AcDbCircle
10
2500
20
6320
30
0
40
270
100
AcDbArc
50
180
51
0
0
CIRCLE
5
1EC
330
10B
100
AcDbEntity
8
A-FURNITURE
100
AcDbCircle
10
3300
20
6320
30
0
40
220
0
ARC
5
1ED
330
10B
100
AcDbEntity
8
A-FURNITURE
100
AcDbCircle
10
3300
20
6320
30
0
40
270
100
AcDbArc
50
180
51
0
0
CIRCLE
5
1EE
330
10B
100
AcDbEntity
8
A-FURNITURE
100
AcDbCircle
10
4100
20
6320
30
0
40
220
0
ARC
5
1EF
330
10B
100
AcDbEntity
8
A-FURNITURE
100
AcDbCircle
10
4100
20
6320
30
0
40
270
100
AcDbArc
50
180
51
0
0
LWPOLYLINE
5
1F0
330
10B
100
AcDbEntity
8
A-FURNITURE
100
AcDbPolyline
90
4
70
1
10
5550
20
7050
10
6600
20
7050
10
6600
20
8750
10
5550
20
8750
0
LWPOLYLINE
5
1F1
330
10B
100
AcDbEntity
8
A-FURNITURE
100
AcDbPolyline
90
4
70
1
10
5100
20
7320
10
5470
20
7320
10
5470
20
7790
10
5100
20
7790
0
LINE
5
1F2
330
10B
100
AcDbEntity
8
A-FURNITURE
100
AcDbLine
10
5160
20
7380
30
0
11
5410
21
7380
31
0
0
LWPOLYLINE
5
1F3
330
10B
100
AcDbEntity
8
A-FURNITURE
100
AcDbPolyline
90
4
70
1
10
6660
20
7320
10
7030
20
7320
10
7030
20
7790
10
6660
20
7790
0
LINE
5
1F4
330
10B
100
AcDbEntity
8
A-FURNITURE
100
AcDbLine
10
6720
20
7380
30
0
11
6970
21
7380
31
0
0
LWPOLYLINE
5
1F5
330
10B
100
AcDbEntity
8
A-FURNITURE
100
AcDbPolyline
90
4
70
1
10
5100
20
8100
10
5470
20
8100
10
5470
20
8570
10
5100
20
8570
0
LINE
5
1F6
330
10B
100
AcDbEntity
8
A-FURNITURE
100
AcDbLine
10
5160
20
8160
30
0
11
5410
21
8160
31
0
0
LWPOLYLINE
5
1F7
330
10B
100
AcDbEntity
8
A-FURNITURE
100
AcDbPolyline
90
4
70
1
10
6660
20
8100
10
7030
20
8100
10
7030
20
8570
10
6660
20
8570
0
LINE
5
1F8
330
10B
100
AcDbEntity
8
A-FURNITURE
100
AcDbLine
10
6720
20
8160
30
0
11
6970
21
8160
31
0
0
LWPOLYLINE
5
1F9
330
10B
100
AcDbEntity
8
A-FURNITURE
100
AcDbPolyline
90
4
70
1
10
5830
20
6550
10
6300
20
6550
10
6300
20
6950
10
5830
20
6950
0
LWPOLYLINE
5
1FA
330
10B
100
AcDbEntity
8
A-FURNITURE
100
AcDbPolyline
90
4
70
1
10
5830
20
8850
10
6300
20
8850
10
6300
20
9200
10
5830
20
9200
0
LWPOLYLINE
5
1FB
330
10B
100
AcDbEntity
8
A-FURNITURE
6
DASHED
100
AcDbPolyline
90
4
70
1
10
1550
20
1250
10
6100
20
1250
10
6100
20
4150
10
1550
20
4150
0
LWPOLYLINE
5
1FC
330
10B
100
AcDbEntity
8
A-FURNITURE
100
AcDbPolyline
90
4
70
1
10
1800
20
3350
10
4950
20
3350
10
4950
20
4200
10
1800
20
4200
0
LWPOLYLINE
5
1FD
330
10B
100
AcDbEntity
8
A-FURNITURE
100
AcDbPolyline
90
4
70
1
10
1850
20
3400
10
4900
20
3400
10
4900
20
3550
10
1850
20
3550
0
LWPOLYLINE
5
1FE
330
10B
100
AcDbEntity
8
A-FURNITURE
100
AcDbPolyline
90
4
70
1
10
1920
20
3570
10
2840
20
3570
10
2840
20
4120
10
1920
20
4120
0
LWPOLYLINE
5
1FF
330
10B
100
AcDbEntity
8
A-FURNITURE
100
AcDbPolyline
90
4
70
1
10
2880
20
3570
10
3800
20
3570
10
3800
20
4120
10
2880
20
4120
0
LWPOLYLINE
5
200
330
10B
100
AcDbEntity
8
A-FURNITURE
100
AcDbPolyline
90
4
70
1
10
3840
20
3570
10
4760
20
3570
10
4760
20
4120
10
3840
20
4120
0
LWPOLYLINE
5
201
330
10B
100
AcDbEntity
8
A-FURNITURE
100
AcDbPolyline
90
4
70
1
10
4600
20
1800
10
5450
20
1800
10
5450
20
3900
10
4600
20
3900
0
LWPOLYLINE
5
202
330
10B
100
AcDbEntity
8
A-FURNITURE
100
AcDbPolyline
90
4
70
1
10
5150
20
1850
10
5350
20
1850
10
5350
20
3810
10
5150
20
3810
0
LWPOLYLINE
5
203
330
10B
100
AcDbEntity
8
A-FURNITURE
100
AcDbPolyline
90
4
70
1
10
2550
20
2050
10
4100
20
2050
10
4100
20
2770
10
2550
20
2770
0
LWPOLYLINE
5
204
330
10B
100
AcDbEntity
8
A-FURNITURE
100
AcDbPolyline
90
4
70
1
10
2610
20
2110
10
4040
20
2110
10
4040
20
2710
10
2610
20
2710
0
CIRCLE
5
205
330
10B
100
AcDbEntity
8
A-FURNITURE
100
AcDbCircle
10
3650
20
2400
30
0
40
150
0
LWPOLYLINE
5
206
330
10B
100
AcDbEntity
8
A-FIXTURES
100
AcDbPolyline
90
4
70
1
10
650
20
2100
10
1000
20
2100
10
1000
20
4000
10
650
20
4000
0
LINE
5
207
330
10B
100
AcDbEntity
8
A-FIXTURES
100
AcDbLine
10
820
20
2200
30
0
11
820
21
3900
31
0
0
LWPOLYLINE
5
208
330
10B
100
AcDbEntity
8
A-FURNITURE
100
AcDbPolyline
90
4
70
1
10
1650
20
1250
10
2450
20
1250
10
2450
20
1980
10
1650
20
1980
0
LWPOLYLINE
5
209
330
10B
100
AcDbEntity
8
A-FURNITURE
100
AcDbPolyline
90
4
70
1
10
1690
20
1300
10
2410
20
1300
10
2410
20
1420
10
1690
20
1420
0
CIRCLE
5
20A
330
10B
100
AcDbEntity
8
A-FURNITURE
100
AcDbCircle
10
6100
20
3300
30
0
40
360
0
CIRCLE
5
20B
330
10B
100
AcDbEntity
8
A-FURNITURE
100
AcDbCircle
10
6100
20
3300
30
0
40
300
0
LWPOLYLINE
5
20C
330
10B
100
AcDbEntity
8
A-FURNITURE
100
AcDbPolyline
90
4
70
1
10
8070
20
6850
10
9720
20
6850
10
9720
20
9050
10
8070
20
9050
0
LWPOLYLINE
5
20D
330
10B
100
AcDbEntity
8
A-FURNITURE
100
AcDbPolyline
90
4
70
1
10
8110
20
6890
10
9680
20
6890
10
9680
20
9010
10
8110
20
9010
0
LWPOLYLINE
5
20E
330
10B
100
AcDbEntity
8
A-FURNITURE
100
AcDbPolyline
90
4
70
1
10
8160
20
8600
10
8850
20
8600
10
8850
20
8920
10
8160
20
8920
0
LWPOLYLINE
5
20F
330
10B
100
AcDbEntity
8
A-FURNITURE
100
AcDbPolyline
90
4
70
1
10
8940
20
8600
10
9630
20
8600
10
9630
20
8920
10
8940
20
8920
0
LINE
5
210
330
10B
100
AcDbEntity
8
A-FURNITURE
100
AcDbLine
10
8110
20
8490
30
0
11
9680
21
8490
31
0
0
LWPOLYLINE
5
211
330
10B
100
AcDbEntity
8
A-FURNITURE
100
AcDbPolyline
90
4
70
1
10
7600
20
8590
10
8000
20
8590
10
8000
20
8990
10
7600
20
8990
0
LWPOLYLINE
5
212
330
10B
100
AcDbEntity
8
A-FURNITURE
100
AcDbPolyline
90
4
70
1
10
9790
20
8590
10
10190
20
8590
10
10190
20
8990
10
9790
20
8990
0
LWPOLYLINE
5
213
330
10B
100
AcDbEntity
8
A-FURNITURE
100
AcDbPolyline
90
4
70
1
10
11200
20
6850
10
13050
20
6850
10
13050
20
9050
10
11200
20
9050
0
LWPOLYLINE
5
214
330
10B
100
AcDbEntity
8
A-FURNITURE
100
AcDbPolyline
90
4
70
1
10
11240
20
6890
10
13010
20
6890
10
13010
20
9010
10
11240
20
9010
0
LWPOLYLINE
5
215
330
10B
100
AcDbEntity
8
A-FURNITURE
100
AcDbPolyline
90
4
70
1
10
11290
20
8600
10
12080
20
8600
10
12080
20
8920
10
11290
20
8920
0
LWPOLYLINE
5
216
330
10B
100
AcDbEntity
8
A-FURNITURE
100
AcDbPolyline
90
4
70
1
10
12170
20
8600
10
12960
20
8600
10
12960
20
8920
10
12170
20
8920
0
LINE
5
217
330
10B
100
AcDbEntity
8
A-FURNITURE
100
AcDbLine
10
11240
20
8490
30
0
11
13010
21
8490
31
0
0
LWPOLYLINE
5
218
330
10B
100
AcDbEntity
8
A-FURNITURE
100
AcDbPolyline
90
4
70
1
10
10730
20
8590
10
11130
20
8590
10
11130
20
8990
10
10730
20
8990
0
LWPOLYLINE
5
219
330
10B
100
AcDbEntity
8
A-FURNITURE
100
AcDbPolyline
90
4
70
1
10
13120
20
8590
10
13520
20
8590
10
13520
20
8990
10
13120
20
8990
0
LWPOLYLINE
5
21A
330
10B
100
AcDbEntity
8
A-FIXTURES
100
AcDbPolyline
90
4
70
1
10
7770
20
5540
10
10020
20
5540
10
10020
20
6060
10
7770
20
6060
0
LINE
5
21B
330
10B
100
AcDbEntity
8
A-FIXTURES
100
AcDbLine
10
8220
20
5540
30
0
11
8220
21
6060
31
0
0
LINE
5
21C
330
10B
100
AcDbEntity
8
A-FIXTURES
100
AcDbLine
10
8670
20
5540
30
0
11
8670
21
6060
31
0
0
LINE
5
21D
330
10B
100
AcDbEntity
8
A-FIXTURES
100
AcDbLine
10
9120
20
5540
30
0
11
9120
21
6060
31
0
0
LINE
5
21E
330
10B
100
AcDbEntity
8
A-FIXTURES
100
AcDbLine
10
9570
20
5540
30
0
11
9570
21
6060
31
0
0
LWPOLYLINE
5
21F
330
10B
100
AcDbEntity
8
A-FIXTURES
100
AcDbPolyline
90
4
70
1
10
13500
20
5650
10
13900
20
5650
10
13900
20
9050
10
13500
20
9050
0
LINE
5
220
330
10B
100
AcDbEntity
8
A-FIXTURES
100
AcDbLine
10
13500
20
6050
30
0
11
13900
21
6050
31
0
0
LINE
5
221
330
10B
100
AcDbEntity
8
A-FIXTURES
100
AcDbLine
10
13500
20
6600
30
0
11
13900
21
6600
31
0
0
LINE
5
222
330
10B
100
AcDbEntity
8
A-FIXTURES
100
AcDbLine
10
13500
20
7150
30
0
11
13900
21
7150
31
0
0
LINE
5
223
330
10B
100
AcDbEntity
8
A-FIXTURES
100
AcDbLine
10
13500
20
7700
30
0
11
13900
21
7700
31
0
0
LINE
5
224
330
10B
100
AcDbEntity
8
A-FIXTURES
100
AcDbLine
10
13500
20
8250
30
0
11
13900
21
8250
31
0
0
LINE
5
225
330
10B
100
AcDbEntity
8
A-FIXTURES
100
AcDbLine
10
13500
20
8800
30
0
11
13900
21
8800
31
0
0
LWPOLYLINE
5
226
330
10B
100
AcDbEntity
8
A-FURNITURE
100
AcDbPolyline
90
4
70
1
10
7900
20
3800
10
8450
20
3800
10
8450
20
5100
10
7900
20
5100
0
LWPOLYLINE
5
227
330
10B
100
AcDbEntity
8
A-FURNITURE
100
AcDbPolyline
90
4
70
1
10
7950
20
4210
10
8130
20
4210
10
8130
20
4710
10
7950
20
4710
0
LWPOLYLINE
5
228
330
10B
100
AcDbEntity
8
A-FURNITURE
100
AcDbPolyline
90
4
70
1
10
8530
20
4140
10
9030
20
4140
10
9030
20
4740
10
8530
20
4740
0
ARC
5
229
330
10B
100
AcDbEntity
8
A-FURNITURE
100
AcDbCircle
10
8800
20
4440
30
0
40
370
100
AcDbArc
50
295
51
65
0
LWPOLYLINE
5
22A
330
10B
100
AcDbEntity
8
A-FIXTURES
100
AcDbPolyline
90
4
70
1
10
7750
20
350
10
8300
20
350
10
8300
20
2200
10
7750
20
2200
0
LINE
5
22B
330
10B
100
AcDbEntity
8
A-FIXTURES
100
AcDbLine
10
7750
20
750
30
0
11
8300
21
750
31
0
0
LINE
5
22C
330
10B
100
AcDbEntity
8
A-FIXTURES
100
AcDbLine
10
7750
20
1150
30
0
11
8300
21
1150
31
0
0
LINE
5
22D
330
10B
100
AcDbEntity
8
A-FIXTURES
100
AcDbLine
10
7750
20
1550
30
0
11
8300
21
1550
31
0
0
LINE
5
22E
330
10B
100
AcDbEntity
8
A-FIXTURES
100
AcDbLine
10
7750
20
1950
30
0
11
8300
21
1950
31
0
0
LWPOLYLINE
5
22F
330
10B
100
AcDbEntity
8
A-FURNITURE
100
AcDbPolyline
90
4
70
1
10
9350
20
350
10
10110
20
350
10
10110
20
2150
10
9350
20
2150
0
LWPOLYLINE
5
230
330
10B
100
AcDbEntity
8
A-FURNITURE
100
AcDbPolyline
90
4
70
1
10
9400
20
400
10
9570
20
400
10
9570
20
2100
10
9400
20
2100
0
LWPOLYLINE
5
231
330
10B
100
AcDbEntity
8
A-FIXTURES
100
AcDbPolyline
90
4
70
1
10
12800
20
550
10
13830
20
550
10
13830
20
2650
10
12800
20
2650
0
LWPOLYLINE
5
232
330
10B
100
AcDbEntity
8
A-FIXTURES
100
AcDbPolyline
90
4
70
1
10
12870
20
620
10
13760
20
620
10
13760
20
2580
10
12870
20
2580
0
CIRCLE
5
233
330
10B
100
AcDbEntity
8
A-FIXTURES
100
AcDbCircle
10
13320
20
2260
30
0
40
55
0
LWPOLYLINE
5
234
330
10B
100
AcDbEntity
8
A-FIXTURES
100
AcDbPolyline
90
4
70
1
10
10660
20
420
10
12240
20
420
10
12240
20
1020
10
10660
20
1020
0
ELLIPSE
5
235
330
10B
100
AcDbEntity
8
A-FIXTURES
100
AcDbEllipse
10
11450
20
740
30
0
11
350
21
0
31
0
40
0.5
41
0
42
6.2831853072
0
LWPOLYLINE
5
236
330
10B
100
AcDbEntity
8
A-FIXTURES
100
AcDbPolyline
90
4
70
1
10
10800
20
2600
10
11500
20
2600
10
11500
20
3080
10
10800
20
3080
0
ELLIPSE
5
237
330
10B
100
AcDbEntity
8
A-FIXTURES
100
AcDbEllipse
10
11150
20
2440
30
0
11
0
21
432
31
0
40
0.7407407407
41
0
42
6.2831853072
0
LWPOLYLINE
5
238
330
10B
100
AcDbEntity
8
A-FIXTURES
100
AcDbPolyline
90
4
70
1
10
10670
20
3650
10
11850
20
3650
10
11850
20
4300
10
10670
20
4300
0
CIRCLE
5
239
330
10B
100
AcDbEntity
8
A-FIXTURES
100
AcDbCircle
10
10960
20
3975
30
0
40
220
0
CIRCLE
5
23A
330
10B
100
AcDbEntity
8
A-FIXTURES
100
AcDbCircle
10
11550
20
3975
30
0
40
220
0
LWPOLYLINE
5
23B
330
10B
100
AcDbEntity
8
A-FIXTURES
100
AcDbPolyline
90
4
70
1
10
12900
20
3650
10
13700
20
3650
10
13700
20
5000
10
12900
20
5000
0
TEXT
5
23C
330
10B
100
AcDbEntity
8
A-ANNOTATION
100
AcDbText
10
3700
20
4530
30
0
40
155
1
LIVING ROOM
50
0
7
STANDARD
72
1
11
3700
21
4530
31
0
100
AcDbText
73
0
0
TEXT
5
23D
330
10B
100
AcDbEntity
8
A-ANNOTATION
100
AcDbText
10
3700
20
4290
30
0
40
92
1
34.8 m²
50
0
7
STANDARD
72
1
11
3700
21
4290
31
0
100
AcDbText
73
0
0
TEXT
5
23E
330
10B
100
AcDbEntity
8
A-ANNOTATION
100
AcDbText
10
3730
20
8030
30
0
40
145
1
KITCHEN / DINING
50
0
7
STANDARD
72
1
11
3730
21
8030
31
0
100
AcDbText
73
0
0
TEXT
5
23F
330
10B
100
AcDbEntity
8
A-ANNOTATION
100
AcDbText
10
3730
20
7800
30
0
40
92
1
28.6 m²
50
0
7
STANDARD
72
1
11
3730
21
7800
31
0
100
AcDbText
73
0
0
TEXT
5
240
330
10B
100
AcDbEntity
8
A-ANNOTATION
100
AcDbText
10
8950
20
6430
30
0
40
115
1
BEDROOM 02
50
0
7
STANDARD
72
1
11
8950
21
6430
31
0
100
AcDbText
73
0
0
TEXT
5
241
330
10B
100
AcDbEntity
8
A-ANNOTATION
100
AcDbText
10
8950
20
6220
30
0
40
86
1
11.4 m²
50
0
7
STANDARD
72
1
11
8950
21
6220
31
0
100
AcDbText
73
0
0
TEXT
5
242
330
10B
100
AcDbEntity
8
A-ANNOTATION
100
AcDbText
10
12150
20
6430
30
0
40
115
1
PRIMARY BEDROOM
50
0
7
STANDARD
72
1
11
12150
21
6430
31
0
100
AcDbText
73
0
0
TEXT
5
243
330
10B
100
AcDbEntity
8
A-ANNOTATION
100
AcDbText
10
12150
20
6220
30
0
40
86
1
15.8 m²
50
0
7
STANDARD
72
1
11
12150
21
6220
31
0
100
AcDbText
73
0
0
TEXT
5
244
330
10B
100
AcDbEntity
8
A-ANNOTATION
100
AcDbText
10
9100
20
3110
30
0
40
125
1
STUDIO
50
0
7
STANDARD
72
1
11
9100
21
3110
31
0
100
AcDbText
73
0
0
TEXT
5
245
330
10B
100
AcDbEntity
8
A-ANNOTATION
100
AcDbText
10
9100
20
2880
30
0
40
86
1
12.2 m²
50
0
7
STANDARD
72
1
11
9100
21
2880
31
0
100
AcDbText
73
0
0
TEXT
5
246
330
10B
100
AcDbEntity
8
A-ANNOTATION
100
AcDbText
10
11750
20
1650
30
0
40
110
1
BATHROOM
50
0
7
STANDARD
72
1
11
11750
21
1650
31
0
100
AcDbText
73
0
0
TEXT
5
247
330
10B
100
AcDbEntity
8
A-ANNOTATION
100
AcDbText
10
11750
20
1430
30
0
40
86
1
8.9 m²
50
0
7
STANDARD
72
1
11
11750
21
1430
31
0
100
AcDbText
73
0
0
TEXT
5
248
330
10B
100
AcDbEntity
8
A-ANNOTATION
100
AcDbText
10
12150
20
4800
30
0
40
110
1
UTILITY
50
0
7
STANDARD
72
1
11
12150
21
4800
31
0
100
AcDbText
73
0
0
TEXT
5
249
330
10B
100
AcDbEntity
8
A-ANNOTATION
100
AcDbText
10
12150
20
4580
30
0
40
86
1
5.7 m²
50
0
7
STANDARD
72
1
11
12150
21
4580
31
0
100
AcDbText
73
0
0
LWPOLYLINE
5
24A
330
10B
100
AcDbEntity
8
A-SITE
100
AcDbPolyline
90
4
70
1
10
500
20
-2000
10
7000
20
-2000
10
7000
20
-200
10
500
20
-200
0
LINE
5
24B
330
10B
100
AcDbEntity
8
A-SITE
100
AcDbLine
10
550
20
-1800
30
0
11
6950
21
-1800
31
0
0
LINE
5
24C
330
10B
100
AcDbEntity
8
A-SITE
100
AcDbLine
10
550
20
-1640
30
0
11
6950
21
-1640
31
0
0
LINE
5
24D
330
10B
100
AcDbEntity
8
A-SITE
100
AcDbLine
10
550
20
-1480
30
0
11
6950
21
-1480
31
0
0
LINE
5
24E
330
10B
100
AcDbEntity
8
A-SITE
100
AcDbLine
10
550
20
-1320
30
0
11
6950
21
-1320
31
0
0
LINE
5
24F
330
10B
100
AcDbEntity
8
A-SITE
100
AcDbLine
10
550
20
-1160
30
0
11
6950
21
-1160
31
0
0
LINE
5
250
330
10B
100
AcDbEntity
8
A-SITE
100
AcDbLine
10
550
20
-1000
30
0
11
6950
21
-1000
31
0
0
LINE
5
251
330
10B
100
AcDbEntity
8
A-SITE
100
AcDbLine
10
550
20
-840
30
0
11
6950
21
-840
31
0
0
LINE
5
252
330
10B
100
AcDbEntity
8
A-SITE
100
AcDbLine
10
550
20
-680
30
0
11
6950
21
-680
31
0
0
LINE
5
253
330
10B
100
AcDbEntity
8
A-SITE
100
AcDbLine
10
550
20
-520
30
0
11
6950
21
-520
31
0
0
LINE
5
254
330
10B
100
AcDbEntity
8
A-SITE
100
AcDbLine
10
550
20
-360
30
0
11
6950
21
-360
31
0
0
LWPOLYLINE
5
255
330
10B
100
AcDbEntity
8
A-SITE
100
AcDbPolyline
90
4
70
1
10
8600
20
-400
10
10200
20
-400
10
10200
20
-140
10
8600
20
-140
0
LWPOLYLINE
5
256
330
10B
100
AcDbEntity
8
A-SITE
100
AcDbPolyline
90
4
70
1
10
8600
20
-760
10
10200
20
-760
10
10200
20
-500
10
8600
20
-500
0
LWPOLYLINE
5
257
330
10B
100
AcDbEntity
8
A-SITE
100
AcDbPolyline
90
4
70
1
10
8600
20
-1120
10
10200
20
-1120
10
10200
20
-860
10
8600
20
-860
0
LWPOLYLINE
5
258
330
10B
100
AcDbEntity
8
A-SITE
100
AcDbPolyline
90
4
70
1
10
8600
20
-1480
10
10200
20
-1480
10
10200
20
-1220
10
8600
20
-1220
0
CIRCLE
5
259
330
10B
100
AcDbEntity
8
A-LANDSCAPE
100
AcDbCircle
10
-1200
20
1000
30
0
40
156
0
LWPOLYLINE
5
25A
330
10B
100
AcDbEntity
8
A-LANDSCAPE
100
AcDbPolyline
90
80
70
1
10
-628
20
1000
10
-579.262495799
20
1048.8531010707
10
-558.9510650441
20
1101.5321767836
10
-579.1360369307
20
1149.0562498112
10
-633.0720478398
20
1184.2060580018
10
-699.1180718698
20
1207.4720877791
10
-752.2678930037
20
1228.1309030704
10
-776.9581945912
20
1259.2403517706
10
-774.333483353
20
1309.2648270919
10
-760.3942480499
20
1375.4587819592
10
-756.5349211613
20
1443.4650788387
10
-778.0149270495
20
1494.0810395701
10
-826.6956315532
20
1513.8093835631
10
-891.6167813132
20
1503.2356756962
10
-956.3938093096
20
1478.1040690551
10
-1008.6822411534
20
1461.8819281302
10
-1046.1659040569
20
1473.4526645402
10
-1075.9832915437
20
1516.5667672206
10
-1108.6106901325
20
1577.009393601
10
-1150.4678576168
20
1629.3655421422
10
-1200
20
1650
10
-1249.5321423832
20
1629.3655421422
10
-1291.3893098675
20
1577.009393601
10
-1324.0167084563
20
1516.5667672206
10
-1353.8340959431
20
1473.4526645402
10
-1391.3177588466
20
1461.8819281302
10
-1443.6061906904
20
1478.1040690551
10
-1508.3832186868
20
1503.2356756962
10
-1573.3043684468
20
1513.8093835631
10
-1621.9850729505
20
1494.0810395701
10
-1643.4650788387
20
1443.4650788387
10
-1639.6057519501
20
1375.4587819592
10
-1625.666516647
20
1309.2648270919
10
-1623.0418054088
20
1259.2403517706
10
-1647.7321069963
20
1228.1309030704
10
-1700.8819281302
20
1207.4720877791
10
-1766.9279521602
20
1184.2060580018
10
-1820.8639630693
20
1149.0562498112
10
-1841.0489349559
20
1101.5321767836
10
-1820.737504201
20
1048.8531010707
10
-1772
20
1000
10
-1719.7359255897
20
959.095895558
10
-1688.8665266849
20
922.5711487776
10
-1691.5272258657
20
881.9947535601
10
-1721.0807024814
20
830.6906164369
10
-1756.0362570627
20
769.6822411534
10
-1771.5793566752
20
708.7657713684
10
-1752.3785426123
20
661.5019937356
10
-1699.848924918
20
636.8384984693
10
-1630.2986726963
20
632.4902146695
10
-1565.4650788387
20
634.5349211613
10
-1520.9834943392
20
624.1766149237
10
-1499.1219601758
20
588.2939419982
10
-1489.3551393483
20
527.8153276751
10
-1475.7589410116
20
458.7926053836
10
-1446.4720877791
20
404.9637429373
10
-1399.6813456219
20
385.4440098985
10
-1343.0447877948
20
404.1755782856
10
-1287.5717181385
20
447.0939319602
10
-1240.2250631295
20
488.8921123515
10
-1200
20
506
10
-1159.7749368705
20
488.8921123515
10
-1112.4282818615
20
447.0939319602
10
-1056.9552122052
20
404.1755782856
10
-1000.3186543781
20
385.4440098985
10
-953.5279122209
20
404.9637429373
10
-924.2410589884
20
458.7926053836
10
-910.6448606517
20
527.8153276751
10
-900.8780398242
20
588.2939419982
10
-879.0165056608
20
624.1766149237
10
-834.5349211613
20
634.5349211613
10
-769.7013273037
20
632.4902146695
10
-700.151075082
20
636.8384984693
10
-647.6214573877
20
661.5019937356
10
-628.4206433248
20
708.7657713684
10
-643.9637429373
20
769.6822411534
10
-678.9192975186
20
830.6906164369
10
-708.4727741343
20
881.9947535601
10
-711.1334733151
20
922.5711487776
10
-680.2640744103
20
959.095895558
0
ARC
5
25B
330
10B
100
AcDbEntity
8
A-LANDSCAPE
100
AcDbCircle
10
-959.5
20
1000
30
0
40
325
100
AcDbArc
50
290
51
120
0
ARC
5
25C
330
10B
100
AcDbEntity
8
A-LANDSCAPE
100
AcDbCircle
10
-1050.050702653
20
1188.0304715336
30
0
40
325
100
AcDbArc
50
341.4285714286
51
171.4285714286
0
ARC
5
25D
330
10B
100
AcDbEntity
8
A-LANDSCAPE
100
AcDbCircle
10
-1253.5162846165
20
1234.4701628797
30
0
40
325
100
AcDbArc
50
32.8571428571
51
222.8571428571
0
ARC
5
25E
330
10B
100
AcDbEntity
8
A-LANDSCAPE
100
AcDbCircle
10
-1416.6830127305
20
1104.3490392578
30
0
40
325
100
AcDbArc
50
84.2857142857
51
274.2857142857
0
ARC
5
25F
330
10B
100
AcDbEntity
8
A-LANDSCAPE
100
AcDbCircle
10
-1416.6830127305
20
895.6509607422
30
0
40
325
100
AcDbArc
50
135.7142857143
51
325.7142857143
0
ARC
5
260
330
10B
100
AcDbEntity
8
A-LANDSCAPE
100
AcDbCircle
10
-1253.5162846165
20
765.5298371203
30
0
40
325
100
AcDbArc
50
187.1428571429
51
17.1428571429
0
ARC
5
261
330
10B
100
AcDbEntity
8
A-LANDSCAPE
100
AcDbCircle
10
-1050.050702653
20
811.9695284664
30
0
40
325
100
AcDbArc
50
238.5714285714
51
68.5714285714
0
CIRCLE
5
262
330
10B
100
AcDbEntity
8
A-LANDSCAPE
100
AcDbCircle
10
-1200
20
7900
30
0
40
196.8
0
LWPOLYLINE
5
263
330
10B
100
AcDbEntity
8
A-LANDSCAPE
100
AcDbPolyline
90
80
70
1
10
-478.4
20
7900
10
-416.915763931
20
7961.6300659661
10
-391.2921128248
20
8028.0867460963
10
-416.7562312049
20
8088.0401920696
10
-484.7985834286
20
8132.3830270177
10
-568.1181829742
20
8161.734018429
10
-635.1687265585
20
8187.7959084888
10
-666.3164916382
20
8227.0416745414
10
-663.0053174608
20
8290.1494741775
10
-645.4204360014
20
8373.6556941639
10
-640.5517466958
20
8459.4482533042
10
-667.6496002778
20
8523.3022345346
10
-729.062181344
20
8548.1902992642
10
-810.9627087336
20
8534.851160109
10
-892.6814209752
20
8503.1466717311
10
-958.6452888397
20
8482.6818170258
10
-1005.9323712718
20
8497.2787460353
10
-1043.5481524089
20
8551.6688448013
10
-1084.7088706287
20
8627.9195426967
10
-1137.5132973012
20
8693.9688377795
10
-1200
20
8720
10
-1262.4867026988
20
8693.9688377795
10
-1315.2911293713
20
8627.9195426967
10
-1356.4518475911
20
8551.6688448013
10
-1394.0676287282
20
8497.2787460353
10
-1441.3547111603
20
8482.6818170258
10
-1507.3185790248
20
8503.1466717311
10
-1589.0372912664
20
8534.851160109
10
-1670.937818656
20
8548.1902992642
10
-1732.3503997222
20
8523.3022345346
10
-1759.4482533042
20
8459.4482533042
10
-1754.5795639986
20
8373.6556941639
10
-1736.9946825392
20
8290.1494741775
10
-1733.6835083618
20
8227.0416745414
10
-1764.8312734415
20
8187.7959084888
10
-1831.8818170258
20
8161.734018429
10
-1915.2014165714
20
8132.3830270177
10
-1983.2437687951
20
8088.0401920696
10
-2008.7078871752
20
8028.0867460963
10
-1983.084236069
20
7961.6300659661
10
-1921.6
20
7900
10
-1855.6668599747
20
7848.3978990117
10
-1816.7239259717
20
7802.3205261502
10
-1820.0805003229
20
7751.1318429527
10
-1857.3633477458
20
7686.4097007358
10
-1901.4611242945
20
7609.4452888397
10
-1921.0693422671
20
7532.5968192647
10
-1896.846776834
20
7472.9717459433
10
-1830.5786437427
20
7441.857798069
10
-1742.8383255554
20
7436.3722708138
10
-1661.0482533042
20
7438.9517466958
10
-1604.9330236279
20
7425.8843449806
10
-1577.3538574525
20
7380.6169729823
10
-1565.0326373317
20
7304.3208749132
10
-1547.8805101993
20
7217.2460560224
10
-1510.934018429
20
7149.3388757055
10
-1451.9056975538
20
7124.7139817182
10
-1380.4565015258
20
7148.3445756834
10
-1310.4750905748
20
7202.4877295498
10
-1250.7454642556
20
7255.2177417358
10
-1200
20
7276.8
10
-1149.2545357444
20
7255.2177417358
10
-1089.5249094252
20
7202.4877295498
10
-1019.5434984742
20
7148.3445756834
10
-948.0943024462
20
7124.7139817182
10
-889.065981571
20
7149.3388757055
10
-852.1194898007
20
7217.2460560224
10
-834.9673626683
20
7304.3208749132
10
-822.6461425475
20
7380.6169729823
10
-795.0669763721
20
7425.8843449806
10
-738.9517466958
20
7438.9517466958
10
-657.1616744446
20
7436.3722708138
10
-569.4213562573
20
7441.857798069
10
-503.153223166
20
7472.9717459433
10
-478.9306577329
20
7532.5968192647
10
-498.5388757055
20
7609.4452888397
10
-542.6366522542
20
7686.4097007358
10
-579.9194996771
20
7751.1318429527
10
-583.2760740283
20
7802.3205261502
10
-544.3331400253
20
7848.3978990117
0
ARC
5
264
330
10B
100
AcDbEntity
8
A-LANDSCAPE
100
AcDbCircle
10
-896.6
20
7900
30
0
40
410
100
AcDbArc
50
290
51
120
0
ARC
5
265
330
10B
100
AcDbEntity
8
A-LANDSCAPE
100
AcDbCircle
10
-1010.8331941161
20
8137.2076717808
30
0
40
410
100
AcDbArc
50
341.4285714286
51
171.4285714286
0
ARC
5
266
330
10B
100
AcDbEntity
8
A-LANDSCAPE
100
AcDbCircle
10
-1267.5128513623
20
8195.793128556
30
0
40
410
100
AcDbArc
50
32.8571428571
51
222.8571428571
0
ARC
5
267
330
10B
100
AcDbEntity
8
A-LANDSCAPE
100
AcDbCircle
10
-1473.3539545216
20
8031.6403264483
30
0
40
410
100
AcDbArc
50
84.2857142857
51
274.2857142857
0
ARC
5
268
330
10B
100
AcDbEntity
8
A-LANDSCAPE
100
AcDbCircle
10
-1473.3539545216
20
7768.3596735517
30
0
40
410
100
AcDbArc
50
135.7142857143
51
325.7142857143
0
ARC
5
269
330
10B
100
AcDbEntity
8
A-LANDSCAPE
100
AcDbCircle
10
-1267.5128513623
20
7604.206871444
30
0
40
410
100
AcDbArc
50
187.1428571429
51
17.1428571429
0
ARC
5
26A
330
10B
100
AcDbEntity
8
A-LANDSCAPE
100
AcDbCircle
10
-1010.8331941161
20
7662.7923282192
30
0
40
410
100
AcDbArc
50
238.5714285714
51
68.5714285714
0
CIRCLE
5
26B
330
10B
100
AcDbEntity
8
A-LANDSCAPE
100
AcDbCircle
10
15400
20
7500
30
0
40
192
0
LWPOLYLINE
5
26C
330
10B
100
AcDbEntity
8
A-LANDSCAPE
100
AcDbPolyline
90
80
70
1
10
16104
20
7500
10
16163.9846205551
20
7560.1268936254
10
16188.9833045611
20
7624.9626791183
10
16164.1402622391
20
7683.4538459215
10
16097.7574795818
20
7726.71514831
10
16016.470065391
20
7755.350261882
10
15951.0549009186
20
7780.7764960866
10
15920.6668374262
20
7819.0650483331
10
15923.8972512578
20
7880.6336333439
10
15941.0532331693
20
7962.1031162575
10
15945.8031739553
20
8045.8031739553
10
15919.3662436314
20
8108.0997410094
10
15859.4515303961
20
8132.38077977
10
15779.5485768452
20
8119.3669854722
10
15699.8230039267
20
8088.4357772986
10
15635.4680108881
20
8068.470065391
10
15589.3342719299
20
8082.7109717418
10
15552.6359488693
20
8135.774482733
10
15512.4791506062
20
8210.165407509
10
15460.9626367793
20
8274.6037441751
10
15400
20
8300
10
15339.0373632207
20
8274.6037441751
10
15287.5208493938
20
8210.165407509
10
15247.3640511307
20
8135.774482733
10
15210.6657280701
20
8082.7109717418
10
15164.5319891119
20
8068.470065391
10
15100.1769960733
20
8088.4357772986
10
15020.4514231548
20
8119.3669854722
10
14940.5484696039
20
8132.38077977
10
14880.6337563686
20
8108.0997410094
10
14854.1968260447
20
8045.8031739553
10
14858.9467668307
20
7962.1031162575
10
14876.1027487422
20
7880.6336333439
10
14879.3331625738
20
7819.0650483331
10
14848.9450990814
20
7780.7764960866
10
14783.529934609
20
7755.350261882
10
14702.2425204182
20
7726.71514831
10
14635.8597377609
20
7683.4538459215
10
14611.0166954389
20
7624.9626791183
10
14636.0153794449
20
7560.1268936254
10
14696
20
7500
10
14760.3250146589
20
7449.6564868406
10
14798.3181210032
20
7404.7029523417
10
14795.0434143192
20
7354.7627736124
10
14758.6699046383
20
7291.61922023
10
14715.6476836151
20
7216.5319891119
10
14696.5177148614
20
7141.5578724534
10
14720.1494860156
20
7083.387069213
10
14784.8013231779
20
7053.0319981161
10
14870.4016336045
20
7047.6802642086
10
14950.1968260447
20
7050.1968260447
10
15004.9433915825
20
7037.4481414445
10
15031.8498951683
20
6993.28485169
10
15043.8705977252
20
6918.8496340617
10
15060.6043802934
20
6833.8985912414
10
15096.649738118
20
6767.6476836151
10
15154.23834385
20
6743.6233967982
10
15223.9448765602
20
6766.6776348131
10
15292.2194238295
20
6819.500223951
10
15350.4922299945
20
6870.9441382788
10
15400
20
6892
10
15449.5077700055
20
6870.9441382788
10
15507.7805761705
20
6819.500223951
10
15576.0551234398
20
6766.6776348131
10
15645.76165615
20
6743.6233967982
10
15703.350261882
20
6767.6476836151
10
15739.3956197066
20
6833.8985912414
10
15756.1294022748
20
6918.8496340617
10
15768.1501048317
20
6993.28485169
10
15795.0566084175
20
7037.4481414445
10
15849.8031739553
20
7050.1968260447
10
15929.5983663955
20
7047.6802642086
10
16015.1986768221
20
7053.0319981161
10
16079.8505139844
20
7083.387069213
10
16103.4822851386
20
7141.5578724534
10
16084.3523163849
20
7216.5319891119
10
16041.3300953617
20
7291.61922023
10
16004.9565856808
20
7354.7627736124
10
16001.6818789968
20
7404.7029523417
10
16039.6749853411
20
7449.6564868406
0
ARC
5
26D
330
10B
100
AcDbEntity
8
A-LANDSCAPE
100
AcDbCircle
10
15696
20
7500
30
0
40
400
100
AcDbArc
50
290
51
120
0
ARC
5
26E
330
10B
100
AcDbEntity
8
A-LANDSCAPE
100
AcDbCircle
10
15584.5529813502
20
7731.4221188105
30
0
40
400
100
AcDbArc
50
341.4285714286
51
171.4285714286
0
ARC
5
26F
330
10B
100
AcDbEntity
8
A-LANDSCAPE
100
AcDbCircle
10
15334.1338035489
20
7788.5786620058
30
0
40
400
100
AcDbArc
50
32.8571428571
51
222.8571428571
0
ARC
5
270
330
10B
100
AcDbEntity
8
A-LANDSCAPE
100
AcDbCircle
10
15133.3132151009
20
7628.4295867788
30
0
40
400
100
AcDbArc
50
84.2857142857
51
274.2857142857
0
ARC
5
271
330
10B
100
AcDbEntity
8
A-LANDSCAPE
100
AcDbCircle
10
15133.3132151009
20
7371.5704132212
30
0
40
400
100
AcDbArc
50
135.7142857143
51
325.7142857143
0
ARC
5
272
330
10B
100
AcDbEntity
8
A-LANDSCAPE
100
AcDbCircle
10
15334.1338035489
20
7211.4213379942
30
0
40
400
100
AcDbArc
50
187.1428571429
51
17.1428571429
0
ARC
5
273
330
10B
100
AcDbEntity
8
A-LANDSCAPE
100
AcDbCircle
10
15584.5529813502
20
7268.5778811895
30
0
40
400
100
AcDbArc
50
238.5714285714
51
68.5714285714
0
CIRCLE
5
274
330
10B
100
AcDbEntity
8
A-LANDSCAPE
100
AcDbCircle
10
15400
20
2100
30
0
40
163.2
0
LWPOLYLINE
5
275
330
10B
100
AcDbEntity
8
A-LANDSCAPE
100
AcDbPolyline
90
80
70
1
10
15998.4
20
2100
10
16049.3869274718
20
2151.1078595816
10
16070.635808877
20
2206.2182772506
10
16049.5192229032
20
2255.9357690333
10
15993.0938576446
20
2292.7078760635
10
15923.9995555823
20
2317.0477225997
10
15868.3966657808
20
2338.6600216736
10
15842.5668118122
20
2371.2052910831
10
15845.3126635691
20
2423.5385883423
10
15859.8952481939
20
2492.7876488189
10
15863.932697862
20
2563.932697862
10
15841.4613070867
20
2616.884779858
10
15790.5338008367
20
2637.5236628045
10
15722.6162903185
20
2626.4619376514
10
15654.8495533377
20
2600.1704107038
10
15600.1478092549
20
2583.1995555823
10
15560.9341311404
20
2595.3043259805
10
15529.7405565389
20
2640.4083103231
10
15495.6072780152
20
2703.6405963826
10
15451.8182412624
20
2758.4131825488
10
15400
20
2780
10
15348.1817587376
20
2758.4131825488
10
15304.3927219848
20
2703.6405963826
10
15270.2594434611
20
2640.4083103231
10
15239.0658688596
20
2595.3043259805
10
15199.8521907451
20
2583.1995555823
10
15145.1504466623
20
2600.1704107038
10
15077.3837096815
20
2626.4619376514
10
15009.4661991633
20
2637.5236628045
10
14958.5386929133
20
2616.884779858
10
14936.067302138
20
2563.932697862
10
14940.1047518061
20
2492.7876488189
10
14954.6873364309
20
2423.5385883423
10
14957.4331881878
20
2371.2052910831
10
14931.6033342192
20
2338.6600216736
10
14876.0004444177
20
2317.0477225997
10
14806.9061423554
20
2292.7078760635
10
14750.4807770968
20
2255.9357690333
10
14729.364191123
20
2206.2182772506
10
14750.6130725282
20
2151.1078595816
10
14801.6
20
2100
10
14856.27626246
20
2057.2080138145
10
14888.5704028527
20
2018.9975094904
10
14885.7869021713
20
1976.5483575705
10
14854.8694189425
20
1922.8763371955
10
14818.3005310728
20
1859.0521907451
10
14802.0400576321
20
1795.3241915854
10
14822.1270631133
20
1745.8790088311
10
14877.0811247012
20
1720.0771983987
10
14949.8413885638
20
1715.5282245773
10
15017.667302138
20
1717.667302138
10
15064.2018828452
20
1706.8309202279
10
15087.072410893
20
1669.2921239365
10
15097.2900080664
20
1606.0221889524
10
15111.5137232494
20
1533.8138025552
10
15142.1522774003
20
1477.5005310728
10
15191.1025922725
20
1457.0798872785
10
15250.3531450762
20
1476.6759895911
10
15308.3865102551
20
1521.5751903584
10
15357.9183954953
20
1565.302517537
10
15400
20
1583.2
10
15442.0816045047
20
1565.302517537
10
15491.6134897449
20
1521.5751903584
10
15549.6468549238
20
1476.6759895911
10
15608.8974077275
20
1457.0798872785
10
15657.8477225997
20
1477.5005310728
10
15688.4862767506
20
1533.8138025552
10
15702.7099919336
20
1606.0221889524
10
15712.927589107
20
1669.2921239365
10
15735.7981171548
20
1706.8309202279
10
15782.332697862
20
1717.667302138
10
15850.1586114362
20
1715.5282245773
10
15922.9188752988
20
1720.0771983987
10
15977.8729368867
20
1745.8790088311
10
15997.9599423679
20
1795.3241915854
10
15981.6994689272
20
1859.0521907451
10
15945.1305810575
20
1922.8763371955
10
15914.2130978287
20
1976.5483575705
10
15911.4295971473
20
2018.9975094904
10
15943.72373754
20
2057.2080138145
0
ARC
5
276
330
10B
100
AcDbEntity
8
A-LANDSCAPE
100
AcDbCircle
10
15651.6
20
2100
30
0
40
340
100
AcDbArc
50
290
51
120
0
ARC
5
277
330
10B
100
AcDbEntity
8
A-LANDSCAPE
100
AcDbCircle
10
15556.8700341477
20
2296.708800989
30
0
40
340
100
AcDbArc
50
341.4285714286
51
171.4285714286
0
ARC
5
278
330
10B
100
AcDbEntity
8
A-LANDSCAPE
100
AcDbCircle
10
15344.0137330166
20
2345.2918627049
30
0
40
340
100
AcDbArc
50
32.8571428571
51
222.8571428571
0
ARC
5
279
330
10B
100
AcDbEntity
8
A-LANDSCAPE
100
AcDbCircle
10
15173.3162328358
20
2209.165148762
30
0
40
340
100
AcDbArc
50
84.2857142857
51
274.2857142857
0
ARC
5
27A
330
10B
100
AcDbEntity
8
A-LANDSCAPE
100
AcDbCircle
10
15173.3162328358
20
1990.834851238
30
0
40
340
100
AcDbArc
50
135.7142857143
51
325.7142857143
0
ARC
5
27B
330
10B
100
AcDbEntity
8
A-LANDSCAPE
100
AcDbCircle
10
15344.0137330166
20
1854.7081372951
30
0
40
340
100
AcDbArc
50
187.1428571429
51
17.1428571429
0
ARC
5
27C
330
10B
100
AcDbEntity
8
A-LANDSCAPE
100
AcDbCircle
10
15556.8700341477
20
1903.291199011
30
0
40
340
100
AcDbArc
50
238.5714285714
51
68.5714285714
0
CIRCLE
5
27D
330
10B
100
AcDbEntity
8
A-LANDSCAPE
100
AcDbCircle
10
6500
20
-1350
30
0
40
76.8
0
LWPOLYLINE
5
27E
330
10B
100
AcDbEntity
8
A-LANDSCAPE
100
AcDbPolyline
90
80
70
1
10
6781.6
20
-1350
10
6805.593848222
20
-1325.9492425498
10
6815.5933218245
20
-1300.0149283527
10
6805.6561048956
20
-1276.6184616314
10
6779.1029918327
20
-1259.313940676
10
6746.5880261564
20
-1247.8598952472
10
6720.4219603674
20
-1237.6894015653
10
6708.2667349705
20
-1222.3739806668
10
6709.5589005031
20
-1197.7465466624
10
6716.4212932677
20
-1165.158753497
10
6718.3212695821
20
-1131.6787304179
10
6707.7464974526
20
-1106.7601035963
10
6683.7806121584
20
-1097.047688092
10
6651.8194307381
20
-1102.2532058111
10
6619.9292015707
20
-1114.6256890806
10
6594.1872043552
20
-1122.6119738436
10
6575.733708772
20
-1116.9156113033
10
6561.0543795477
20
-1095.6902069068
10
6544.9916602425
20
-1065.9338369964
10
6524.3850547117
20
-1040.15850233
10
6500
20
-1030
10
6475.6149452883
20
-1040.15850233
10
6455.0083397575
20
-1065.9338369964
10
6438.9456204523
20
-1095.6902069068
10
6424.266291228
20
-1116.9156113033
10
6405.8127956448
20
-1122.6119738436
10
6380.0707984293
20
-1114.6256890806
10
6348.1805692619
20
-1102.2532058111
10
6316.2193878416
20
-1097.047688092
10
6292.2535025474
20
-1106.7601035963
10
6281.6787304179
20
-1131.6787304179
10
6283.5787067323
20
-1165.158753497
10
6290.4410994969
20
-1197.7465466624
10
6291.7332650295
20
-1222.3739806668
10
6279.5780396326
20
-1237.6894015653
10
6253.4119738436
20
-1247.8598952472
10
6220.8970081673
20
-1259.313940676
10
6194.3438951044
20
-1276.6184616314
10
6184.4066781755
20
-1300.0149283527
10
6194.406151778
20
-1325.9492425498
10
6218.4
20
-1350
10
6244.1300058635
20
-1370.1374052637
10
6259.3272484013
20
-1388.1188190633
10
6258.0173657277
20
-1408.094890555
10
6243.4679618553
20
-1433.352311908
10
6226.259073446
20
-1463.3872043552
10
6218.6070859445
20
-1493.3768510187
10
6228.0597944062
20
-1516.6451723148
10
6253.9205292711
20
-1528.7872007536
10
6288.1606534418
20
-1530.9278943166
10
6320.0787304179
20
-1529.9212695821
10
6341.977356633
20
-1535.0207434222
10
6352.7399580673
20
-1552.686059324
10
6357.5482390901
20
-1582.4601463753
10
6364.2417521174
20
-1616.4405635034
10
6378.6598952472
20
-1642.940926554
10
6401.69533754
20
-1652.5506412807
10
6429.5779506241
20
-1643.3289460748
10
6456.8877695318
20
-1622.1999104196
10
6480.1968919978
20
-1601.6223446885
10
6500
20
-1593.2
10
6519.8031080022
20
-1601.6223446885
10
6543.1122304682
20
-1622.1999104196
10
6570.4220493759
20
-1643.3289460748
10
6598.30466246
20
-1652.5506412807
10
6621.3401047528
20
-1642.940926554
10
6635.7582478826
20
-1616.4405635034
10
6642.4517609099
20
-1582.4601463753
10
6647.2600419327
20
-1552.686059324
10
6658.022643367
20
-1535.0207434222
10
6679.9212695821
20
-1529.9212695821
10
6711.8393465582
20
-1530.9278943166
10
6746.0794707289
20
-1528.7872007536
10
6771.9402055938
20
-1516.6451723148
10
6781.3929140555
20
-1493.3768510187
10
6773.740926554
20
-1463.3872043552
10
6756.5320381447
20
-1433.352311908
10
6741.9826342723
20
-1408.094890555
10
6740.6727515987
20
-1388.1188190633
10
6755.8699941365
20
-1370.1374052637
0
ARC
5
27F
330
10B
100
AcDbEntity
8
A-LANDSCAPE
100
AcDbCircle
10
6618.4
20
-1350
30
0
40
160
100
AcDbArc
50
290
51
120
0
ARC
5
280
330
10B
100
AcDbEntity
8
A-LANDSCAPE
100
AcDbCircle
10
6573.8211925401
20
-1257.4311524758
30
0
40
160
100
AcDbArc
50
341.4285714286
51
171.4285714286
0
ARC
5
281
330
10B
100
AcDbEntity
8
A-LANDSCAPE
100
AcDbCircle
10
6473.6535214196
20
-1234.5685351977
30
0
40
160
100
AcDbArc
50
32.8571428571
51
222.8571428571
0
ARC
5
282
330
10B
100
AcDbEntity
8
A-LANDSCAPE
100
AcDbCircle
10
6393.3252860404
20
-1298.6281652885
30
0
40
160
100
AcDbArc
50
84.2857142857
51
274.2857142857
0
ARC
5
283
330
10B
100
AcDbEntity
8
A-LANDSCAPE
100
AcDbCircle
10
6393.3252860404
20
-1401.3718347115
30
0
40
160
100
AcDbArc
50
135.7142857143
51
325.7142857143
0
ARC
5
284
330
10B
100
AcDbEntity
8
A-LANDSCAPE
100
AcDbCircle
10
6473.6535214196
20
-1465.4314648023
30
0
40
160
100
AcDbArc
50
187.1428571429
51
17.1428571429
0
ARC
5
285
330
10B
100
AcDbEntity
8
A-LANDSCAPE
100
AcDbCircle
10
6573.8211925401
20
-1442.5688475242
30
0
40
160
100
AcDbArc
50
238.5714285714
51
68.5714285714
0
CIRCLE
5
286
330
10B
100
AcDbEntity
8
A-LANDSCAPE
100
AcDbCircle
10
5700
20
-1350
30
0
40
76.8
0
LWPOLYLINE
5
287
330
10B
100
AcDbEntity
8
A-LANDSCAPE
100
AcDbPolyline
90
80
70
1
10
5981.6
20
-1350
10
6005.593848222
20
-1325.9492425498
10
6015.5933218245
20
-1300.0149283527
10
6005.6561048956
20
-1276.6184616314
10
5979.1029918327
20
-1259.313940676
10
5946.5880261564
20
-1247.8598952472
10
5920.4219603674
20
-1237.6894015653
10
5908.2667349705
20
-1222.3739806668
10
5909.5589005031
20
-1197.7465466624
10
5916.4212932677
20
-1165.158753497
10
5918.3212695821
20
-1131.6787304179
10
5907.7464974526
20
-1106.7601035963
10
5883.7806121584
20
-1097.047688092
10
5851.8194307381
20
-1102.2532058111
10
5819.9292015707
20
-1114.6256890806
10
5794.1872043552
20
-1122.6119738436
10
5775.733708772
20
-1116.9156113033
10
5761.0543795477
20
-1095.6902069068
10
5744.9916602425
20
-1065.9338369964
10
5724.3850547117
20
-1040.15850233
10
5700
20
-1030
10
5675.6149452883
20
-1040.15850233
10
5655.0083397575
20
-1065.9338369964
10
5638.9456204523
20
-1095.6902069068
10
5624.266291228
20
-1116.9156113033
10
5605.8127956448
20
-1122.6119738436
10
5580.0707984293
20
-1114.6256890806
10
5548.1805692619
20
-1102.2532058111
10
5516.2193878416
20
-1097.047688092
10
5492.2535025474
20
-1106.7601035963
10
5481.6787304179
20
-1131.6787304179
10
5483.5787067323
20
-1165.158753497
10
5490.4410994969
20
-1197.7465466624
10
5491.7332650295
20
-1222.3739806668
10
5479.5780396326
20
-1237.6894015653
10
5453.4119738436
20
-1247.8598952472
10
5420.8970081673
20
-1259.313940676
10
5394.3438951044
20
-1276.6184616314
10
5384.4066781755
20
-1300.0149283527
10
5394.406151778
20
-1325.9492425498
10
5418.4
20
-1350
10
5444.1300058635
20
-1370.1374052637
10
5459.3272484013
20
-1388.1188190633
10
5458.0173657277
20
-1408.094890555
10
5443.4679618553
20
-1433.352311908
10
5426.259073446
20
-1463.3872043552
10
5418.6070859445
20
-1493.3768510187
10
5428.0597944062
20
-1516.6451723148
10
5453.9205292711
20
-1528.7872007536
10
5488.1606534418
20
-1530.9278943166
10
5520.0787304179
20
-1529.9212695821
10
5541.977356633
20
-1535.0207434222
10
5552.7399580673
20
-1552.686059324
10
5557.5482390901
20
-1582.4601463753
10
5564.2417521174
20
-1616.4405635034
10
5578.6598952472
20
-1642.940926554
10
5601.69533754
20
-1652.5506412807
10
5629.5779506241
20
-1643.3289460748
10
5656.8877695318
20
-1622.1999104196
10
5680.1968919978
20
-1601.6223446885
10
5700
20
-1593.2
10
5719.8031080022
20
-1601.6223446885
10
5743.1122304682
20
-1622.1999104196
10
5770.4220493759
20
-1643.3289460748
10
5798.30466246
20
-1652.5506412807
10
5821.3401047528
20
-1642.940926554
10
5835.7582478826
20
-1616.4405635034
10
5842.4517609099
20
-1582.4601463753
10
5847.2600419327
20
-1552.686059324
10
5858.022643367
20
-1535.0207434222
10
5879.9212695821
20
-1529.9212695821
10
5911.8393465582
20
-1530.9278943166
10
5946.0794707289
20
-1528.7872007536
10
5971.9402055938
20
-1516.6451723148
10
5981.3929140555
20
-1493.3768510187
10
5973.740926554
20
-1463.3872043552
10
5956.5320381447
20
-1433.352311908
10
5941.9826342723
20
-1408.094890555
10
5940.6727515987
20
-1388.1188190633
10
5955.8699941365
20
-1370.1374052637
0
ARC
5
288
330
10B
100
AcDbEntity
8
A-LANDSCAPE
100
AcDbCircle
10
5818.4
20
-1350
30
0
40
160
100
AcDbArc
50
290
51
120
0
ARC
5
289
330
10B
100
AcDbEntity
8
A-LANDSCAPE
100
AcDbCircle
10
5773.8211925401
20
-1257.4311524758
30
0
40
160
100
AcDbArc
50
341.4285714286
51
171.4285714286
0
ARC
5
28A
330
10B
100
AcDbEntity
8
A-LANDSCAPE
100
AcDbCircle
10
5673.6535214196
20
-1234.5685351977
30
0
40
160
100
AcDbArc
50
32.8571428571
51
222.8571428571
0
ARC
5
28B
330
10B
100
AcDbEntity
8
A-LANDSCAPE
100
AcDbCircle
10
5593.3252860404
20
-1298.6281652885
30
0
40
160
100
AcDbArc
50
84.2857142857
51
274.2857142857
0
ARC
5
28C
330
10B
100
AcDbEntity
8
A-LANDSCAPE
100
AcDbCircle
10
5593.3252860404
20
-1401.3718347115
30
0
40
160
100
AcDbArc
50
135.7142857143
51
325.7142857143
0
ARC
5
28D
330
10B
100
AcDbEntity
8
A-LANDSCAPE
100
AcDbCircle
10
5673.6535214196
20
-1465.4314648023
30
0
40
160
100
AcDbArc
50
187.1428571429
51
17.1428571429
0
ARC
5
28E
330
10B
100
AcDbEntity
8
A-LANDSCAPE
100
AcDbCircle
10
5773.8211925401
20
-1442.5688475242
30
0
40
160
100
AcDbArc
50
238.5714285714
51
68.5714285714
0
LWPOLYLINE
5
28F
330
10B
100
AcDbEntity
8
A-SITE
100
AcDbPolyline
90
4
70
1
10
-2300
20
-2600
10
16500
20
-2600
10
16500
20
10800
10
-2300
20
10800
0
DIMENSION
5
290
330
10B
100
AcDbEntity
8
A-DIMENSION
100
AcDbDimension
2
*D1
10
14200
20
10900
30
0
11
7100
21
9600
31
0
70
32
1
<>
3
STANDARD
100
AcDbAlignedDimension
13
0
23
9600
33
0
14
14200
24
9600
34
0
50
0
100
AcDbRotatedDimension
0
DIMENSION
5
291
330
10B
100
AcDbEntity
8
A-DIMENSION
100
AcDbDimension
2
*D2
10
7500
20
10300
30
0
11
3750
21
9600
31
0
70
32
1
<>
3
STANDARD
100
AcDbAlignedDimension
13
0
23
9600
33
0
14
7500
24
9600
34
0
50
0
100
AcDbRotatedDimension
0
DIMENSION
5
292
330
10B
100
AcDbEntity
8
A-DIMENSION
100
AcDbDimension
2
*D3
10
10460
20
10300
30
0
11
8980
21
9600
31
0
70
32
1
<>
3
STANDARD
100
AcDbAlignedDimension
13
7500
23
9600
33
0
14
10460
24
9600
34
0
50
0
100
AcDbRotatedDimension
0
DIMENSION
5
293
330
10B
100
AcDbEntity
8
A-DIMENSION
100
AcDbDimension
2
*D4
10
14200
20
10300
30
0
11
12330
21
9600
31
0
70
32
1
<>
3
STANDARD
100
AcDbAlignedDimension
13
10460
23
9600
33
0
14
14200
24
9600
34
0
50
0
100
AcDbRotatedDimension
0
DIMENSION
5
294
330
10B
100
AcDbEntity
8
A-DIMENSION
100
AcDbDimension
2
*D5
10
-2750
20
9600
30
0
11
0
21
4800
31
0
70
32
1
<>
3
STANDARD
100
AcDbAlignedDimension
13
0
23
0
33
0
14
0
24
9600
34
0
50
90
100
AcDbRotatedDimension
0
DIMENSION
5
295
330
10B
100
AcDbEntity
8
A-DIMENSION
100
AcDbDimension
2
*D6
10
14900
20
5250
30
0
11
14200
21
2625
31
0
70
32
1
<>
3
STANDARD
100
AcDbAlignedDimension
13
14200
23
0
33
0
14
14200
24
5250
34
0
50
90
100
AcDbRotatedDimension
0
DIMENSION
5
296
330
10B
100
AcDbEntity
8
A-DIMENSION
100
AcDbDimension
2
*D7
10
14900
20
9600
30
0
11
14200
21
7425
31
0
70
32
1
<>
3
STANDARD
100
AcDbAlignedDimension
13
14200
23
5250
33
0
14
14200
24
9600
34
0
50
90
100
AcDbRotatedDimension
0
DIMENSION
5
297
330
10B
100
AcDbEntity
8
A-DIMENSION
100
AcDbDimension
2
*D8
10
7500
20
-650
30
0
11
3750
21
0
31
0
70
32
1
<>
3
STANDARD
100
AcDbAlignedDimension
13
0
23
0
33
0
14
7500
24
0
34
0
50
0
100
AcDbRotatedDimension
0
DIMENSION
5
298
330
10B
100
AcDbEntity
8
A-DIMENSION
100
AcDbDimension
2
*D9
10
10460
20
-650
30
0
11
8980
21
0
31
0
70
32
1
<>
3
STANDARD
100
AcDbAlignedDimension
13
7500
23
0
33
0
14
10460
24
0
34
0
50
0
100
AcDbRotatedDimension
0
DIMENSION
5
299
330
10B
100
AcDbEntity
8
A-DIMENSION
100
AcDbDimension
2
*D10
10
14200
20
-650
30
0
11
12330
21
0
31
0
70
32
1
<>
3
STANDARD
100
AcDbAlignedDimension
13
10460
23
0
33
0
14
14200
24
0
34
0
50
0
100
AcDbRotatedDimension
0
LINE
5
29A
330
10B
100
AcDbEntity
8
A-ANNOTATION
100
AcDbLine
10
0
20
-3150
30
0
11
14200
21
-3150
31
0
0
TEXT
5
29B
330
10B
100
AcDbEntity
8
A-ANNOTATION
100
AcDbText
10
0
20
-3600
30
0
40
235
1
MERIDIAN HOUSE
50
0
7
STANDARD
72
0
11
0
21
-3600
31
0
100
AcDbText
73
0
0
TEXT
5
29C
330
10B
100
AcDbEntity
8
A-DIMENSION
100
AcDbText
10
0
20
-3900
30
0
40
103
1
GROUND FLOOR PLAN  /  CONCEPT DESIGN
50
0
7
STANDARD
72
0
11
0
21
-3900
31
0
100
AcDbText
73
0
0
TEXT
5
29D
330
10B
100
AcDbEntity
8
A-ANNOTATION
100
AcDbText
10
14200
20
-3570
30
0
40
195
1
A — 101
50
0
7
STANDARD
72
2
11
14200
21
-3570
31
0
100
AcDbText
73
0
0
TEXT
5
29E
330
10B
100
AcDbEntity
8
A-DIMENSION
100
AcDbText
10
14200
20
-3890
30
0
40
85
1
1:100  ·  ALL DIMENSIONS IN MILLIMETRES
50
0
7
STANDARD
72
2
11
14200
21
-3890
31
0
100
AcDbText
73
0
0
LINE
5
29F
330
10B
100
AcDbEntity
8
A-ANNOTATION
100
AcDbLine
10
15400
20
9800
30
0
11
15400
21
10550
31
0
0
LWPOLYLINE
5
2A0
330
10B
100
AcDbEntity
8
A-ANNOTATION
100
AcDbPolyline
90
3
70
0
10
15240
20
10200
10
15400
20
10550
10
15560
20
10200
0
TEXT
5
2A1
330
10B
100
AcDbEntity
8
A-ANNOTATION
100
AcDbText
10
15400
20
10750
30
0
40
140
1
N
50
0
7
STANDARD
72
1
11
15400
21
10750
31
0
100
AcDbText
73
0
0
LWPOLYLINE
5
2A2
330
10B
100
AcDbEntity
8
A-DIMENSION
100
AcDbPolyline
90
4
70
1
10
8400
20
-3710
10
8900
20
-3710
10
8900
20
-3620
10
8400
20
-3620
0
HATCH
5
2A3
330
10B
100
AcDbEntity
8
A-DIMENSION
100
AcDbHatch
10
0
20
0
30
0
210
0
220
0
230
1
2
SOLID
70
1
71
0
91
1
92
2
72
0
73
1
93
4
10
8400
20
-3710
10
8900
20
-3710
10
8900
20
-3620
10
8400
20
-3620
97
0
75
0
76
1
98
0
0
LWPOLYLINE
5
2A4
330
10B
100
AcDbEntity
8
A-DIMENSION
100
AcDbPolyline
90
4
70
1
10
8900
20
-3710
10
9400
20
-3710
10
9400
20
-3620
10
8900
20
-3620
0
LWPOLYLINE
5
2A5
330
10B
100
AcDbEntity
8
A-DIMENSION
100
AcDbPolyline
90
4
70
1
10
9400
20
-3710
10
9900
20
-3710
10
9900
20
-3620
10
9400
20
-3620
0
HATCH
5
2A6
330
10B
100
AcDbEntity
8
A-DIMENSION
100
AcDbHatch
10
0
20
0
30
0
210
0
220
0
230
1
2
SOLID
70
1
71
0
91
1
92
2
72
0
73
1
93
4
10
9400
20
-3710
10
9900
20
-3710
10
9900
20
-3620
10
9400
20
-3620
97
0
75
0
76
1
98
0
0
LWPOLYLINE
5
2A7
330
10B
100
AcDbEntity
8
A-DIMENSION
100
AcDbPolyline
90
4
70
1
10
9900
20
-3710
10
10400
20
-3710
10
10400
20
-3620
10
9900
20
-3620
0
TEXT
5
2A8
330
10B
100
AcDbEntity
8
A-DIMENSION
100
AcDbText
10
8400
20
-3910
30
0
40
78
1
0
50
0
7
STANDARD
72
1
11
8400
21
-3910
31
0
100
AcDbText
73
0
0
TEXT
5
2A9
330
10B
100
AcDbEntity
8
A-DIMENSION
100
AcDbText
10
10400
20
-3910
30
0
40
78
1
2 m
50
0
7
STANDARD
72
1
11
10400
21
-3910
31
0
100
AcDbText
73
0
0
ENDSEC
0
EOF
